<svg width="80" height="80" viewBox="0 0 80 80" fill="none" xmlns="http://www.w3.org/2000/svg">
<rect width="80" height="80" rx="40" fill="#F1EEDB"/>
<mask id="mask0_114_1670" style="mask-type:alpha" maskUnits="userSpaceOnUse" x="20" y="20" width="40" height="40">
<rect x="20" y="20" width="40" height="40" fill="#D9D9D9"/>
</mask>
<g mask="url(#mask0_114_1670)">
<path d="M39.9896 31C39.0243 31 38.2014 30.6562 37.5208 29.9688C36.8403 29.2812 36.5 28.4549 36.5 27.4896C36.5 26.5243 36.8438 25.7014 37.5312 25.0208C38.2188 24.3403 39.0451 24 40.0104 24C40.9757 24 41.7986 24.3438 42.4792 25.0312C43.1597 25.7188 43.5 26.5451 43.5 27.5104C43.5 28.4757 43.1562 29.2986 42.4688 29.9792C41.7812 30.6597 40.9549 31 39.9896 31ZM35 55.5V36.2083C33.4722 36.0972 31.9653 35.875 30.4792 35.5417C28.9931 35.2083 27.5 34.8472 26 34.4583L26.75 31.6667C28.9167 32.25 31.1042 32.7014 33.3125 33.0208C35.5208 33.3403 37.75 33.5 40 33.5C42.25 33.5 44.4792 33.3403 46.6875 33.0208C48.8958 32.7014 51.0833 32.25 53.25 31.6667L54 34.4583C52.5 34.8472 51.0069 35.2083 49.5208 35.5417C48.0347 35.875 46.5278 36.1035 45 36.2271V55.5H42L41.625 46.25H38.4167L38 55.5H35Z" fill="#FFA725"/>
</g>
</svg>
