<svg width="80" height="80" viewBox="0 0 80 80" fill="none" xmlns="http://www.w3.org/2000/svg">
<rect width="80" height="80" rx="40" fill="#F1EEDB"/>
<mask id="mask0_114_1679" style="mask-type:alpha" maskUnits="userSpaceOnUse" x="20" y="20" width="40" height="40">
<rect x="20" y="20" width="40" height="40" fill="#D9D9D9"/>
</mask>
<g mask="url(#mask0_114_1679)">
<path d="M42.2083 56L45.625 53C47.7639 51.0278 49.2778 49.3264 50.1667 47.8958C51.0556 46.4653 51.5 45 51.5 43.5C51.5 42.8889 51.4167 42.2847 51.25 41.6875C51.0833 41.0903 50.8472 40.5278 50.5417 40H53.0104C53.809 40 54.5069 40.2986 55.1042 40.8958C55.7014 41.4931 56 42.1893 56 42.9846V56H42.2083ZM24 56V42.9846C24 42.1893 24.2917 41.4931 24.875 40.8958C25.4583 40.2986 26.1661 40 26.9983 40H29.4583C29.1528 40.5556 28.9167 41.1181 28.75 41.6875C28.5833 42.2569 28.5 42.8562 28.5 43.4854C28.5 44.9951 28.9306 46.4583 29.7917 47.875C30.6528 49.2917 32.1667 51 34.3333 53L37.7917 56H24ZM51 38C49.5833 38 48.3958 37.5208 47.4375 36.5625C46.4792 35.6042 46 34.4167 46 33C46 31.6111 46.4792 30.4306 47.4375 29.4583C48.3958 28.4861 49.5833 28 51 28C52.3889 28 53.5694 28.4861 54.5417 29.4583C55.5139 30.4306 56 31.6111 56 33C56 34.4167 55.5139 35.6042 54.5417 36.5625C53.5694 37.5208 52.3889 38 51 38ZM39.9988 35C38.4718 35 37.1736 34.4653 36.1042 33.3958C35.0347 32.3264 34.5 31.0282 34.5 29.5013C34.5 28.0004 35.0347 26.7083 36.1042 25.625C37.1736 24.5417 38.4718 24 39.9988 24C41.4996 24 42.7917 24.5417 43.875 25.625C44.9583 26.7083 45.5 28.0004 45.5 29.5013C45.5 31.0282 44.9583 32.3264 43.875 33.3958C42.7917 34.4653 41.4996 35 39.9988 35ZM31.5 43.5C31.5 44.5556 32.1667 45.9167 33.5 47.5833C34.8333 49.25 37.0139 51.3889 40.0417 54C43.4028 50.9167 45.6528 48.6794 46.7917 47.2883C47.9306 45.8972 48.5 44.6344 48.5 43.5C48.5 42.3611 48.1181 41.4097 47.3542 40.6458C46.5903 39.8819 45.6389 39.5 44.5 39.5C43.8611 39.5 43.2487 39.6528 42.6629 39.9583C42.0771 40.2639 41.5644 40.6389 41.125 41.0833L40 42.1667L38.9167 41.1667C38.4444 40.7222 37.9444 40.3333 37.4167 40C36.8889 39.6667 36.2444 39.5 35.4833 39.5C34.3278 39.5 33.375 39.8819 32.625 40.6458C31.875 41.4097 31.5 42.3611 31.5 43.5ZM29 38C27.5833 38 26.3958 37.5208 25.4375 36.5625C24.4792 35.6042 24 34.4167 24 33C24 31.6111 24.4792 30.4306 25.4375 29.4583C26.3958 28.4861 27.5833 28 29 28C30.3889 28 31.5694 28.4861 32.5417 29.4583C33.5139 30.4306 34 31.6111 34 33C34 34.4167 33.5139 35.6042 32.5417 36.5625C31.5694 37.5208 30.3889 38 29 38Z" fill="#FFA725"/>
</g>
</svg>
