<svg width="80" height="80" viewBox="0 0 80 80" fill="none" xmlns="http://www.w3.org/2000/svg">
<rect width="80" height="80" rx="40" fill="#F1EEDB"/>
<mask id="mask0_114_1697" style="mask-type:alpha" maskUnits="userSpaceOnUse" x="20" y="20" width="40" height="40">
<rect x="20" y="20" width="40" height="40" fill="#D9D9D9"/>
</mask>
<g mask="url(#mask0_114_1697)">
<path d="M29.875 48.125C31.375 47.0694 32.9792 46.2847 34.6875 45.7708C36.3958 45.2569 38.1667 45 40 45C41.8333 45 43.6042 45.2569 45.3125 45.7708C47.0208 46.2847 48.625 47.0694 50.125 48.125C51.0972 46.9861 51.8194 45.7222 52.2917 44.3333C52.7639 42.9444 53 41.5 53 40C53 36.3981 51.7329 33.3308 49.1988 30.7983C46.6646 28.2661 43.5951 27 39.9904 27C36.3857 27 33.3194 28.2661 30.7917 30.7983C28.2639 33.3308 27 36.3981 27 40C27 41.5 27.2361 42.9444 27.7083 44.3333C28.1806 45.7222 28.9028 46.9861 29.875 48.125ZM40 43C38.3333 43 36.9167 42.4167 35.75 41.25C34.5833 40.0833 34 38.6667 34 37C34 35.3333 34.5833 33.9167 35.75 32.75C36.9167 31.5833 38.3333 31 40 31C41.6667 31 43.0833 31.5833 44.25 32.75C45.4167 33.9167 46 35.3333 46 37C46 38.6667 45.4167 40.0833 44.25 41.25C43.0833 42.4167 41.6667 43 40 43ZM40.0117 56C37.8094 56 35.7361 55.5833 33.7917 54.75C31.8472 53.9167 30.1458 52.7708 28.6875 51.3125C27.2292 49.8542 26.0833 48.1533 25.25 46.21C24.4167 44.2667 24 42.1903 24 39.9808C24 37.7714 24.4167 35.7014 25.25 33.7708C26.0833 31.8403 27.2292 30.1458 28.6875 28.6875C30.1458 27.2292 31.8467 26.0833 33.79 25.25C35.7333 24.4167 37.8097 24 40.0192 24C42.2286 24 44.2986 24.4167 46.2292 25.25C48.1597 26.0833 49.8542 27.2292 51.3125 28.6875C52.7708 30.1458 53.9167 31.8433 54.75 33.78C55.5833 35.7169 56 37.7864 56 39.9883C56 42.1906 55.5833 44.2639 54.75 46.2083C53.9167 48.1528 52.7708 49.8542 51.3125 51.3125C49.8542 52.7708 48.1567 53.9167 46.22 54.75C44.2831 55.5833 42.2136 56 40.0117 56Z" fill="#FFA725"/>
</g>
</svg>
