<svg width="80" height="80" viewBox="0 0 80 80" fill="none" xmlns="http://www.w3.org/2000/svg">
<rect width="80" height="80" rx="40" fill="#F1EEDB"/>
<mask id="mask0_114_1688" style="mask-type:alpha" maskUnits="userSpaceOnUse" x="20" y="20" width="40" height="40">
<rect x="20" y="20" width="40" height="40" fill="#D9D9D9"/>
</mask>
<g mask="url(#mask0_114_1688)">
<path d="M39 56C38.0278 56 37.0764 55.8958 36.1458 55.6875C35.2153 55.4791 34.3056 55.1805 33.4167 54.7916C33.6389 51.6805 34.5486 48.7916 36.1458 46.125C37.7431 43.4583 39.6944 41.0833 42 39C39.2222 40.5 36.7569 42.3958 34.6042 44.6875C32.4514 46.9791 31 49.6666 30.25 52.75C30.1389 52.6666 30.0417 52.5903 29.9583 52.5208C29.875 52.4514 29.7917 52.3611 29.7083 52.25C28.5417 51.0278 27.6319 49.6528 26.9792 48.125C26.3264 46.5972 26 45 26 43.3333C26 41.4444 26.3333 39.6389 27 37.9166C27.6667 36.1944 28.5833 34.7361 29.75 33.5416C31.8056 31.4583 34.4444 30.1041 37.6667 29.4791C40.8889 28.8541 45.5417 28.7778 51.625 29.25C52.125 36.1111 52.125 41.1319 51.625 44.3125C51.125 47.493 49.9306 50.0555 48.0417 52C46.8194 53.2778 45.4236 54.2639 43.8542 54.9583C42.2847 55.6528 40.6667 56 39 56Z" fill="#FFA725"/>
</g>
</svg>
