<svg width="408" height="158" viewBox="0 0 408 158" fill="none" xmlns="http://www.w3.org/2000/svg">
<path d="M75.4914 26.737C76.1651 22.1845 82.7314 22.1845 83.4052 26.737L83.4721 27.1892C84.0497 31.0918 89.33 31.8904 91.0358 28.3331L91.2375 27.9125C93.2275 23.7624 99.5008 25.7051 98.7972 30.2536L98.7328 30.6702C98.1294 34.5705 102.94 36.8952 105.621 33.9988L105.923 33.6732C109.05 30.2945 114.362 34.2293 112.344 38.3674V38.3674C110.614 41.9172 114.586 45.6051 118.004 43.6254V43.6254C121.989 41.3167 126.161 46.4859 123.011 49.8453V49.8453C120.308 52.728 123.015 57.4182 126.866 56.5297V56.5297C131.355 55.494 133.805 61.6625 129.804 63.9459V63.9459C126.37 65.9056 127.573 71.182 131.517 71.4634V71.4634C136.113 71.7914 136.614 78.4065 132.118 79.4133V79.4133C128.259 80.2773 127.855 85.6734 131.543 87.1009V87.1009C135.839 88.7643 134.346 95.2295 129.753 94.8718V94.8718C125.812 94.5648 123.834 99.6042 126.938 102.053V102.053C130.554 104.906 127.204 110.639 122.919 108.948V108.948C119.245 107.498 115.867 111.734 118.11 114.987V114.987C120.723 118.778 116.046 123.446 112.449 120.571L112.12 120.308C109.036 117.842 104.663 120.983 105.843 124.751V124.751C107.22 129.143 101.386 132.257 98.798 128.45L98.5412 128.072C96.3229 124.809 91.2202 126.388 91.2331 130.334L91.2346 130.776C91.2497 135.379 84.7571 136.361 83.4098 131.961L83.2731 131.514C82.1183 127.742 76.7784 127.742 75.6236 131.514L75.4872 131.96C74.14 136.36 67.6473 135.378 67.6624 130.776L67.6639 130.334C67.6768 126.388 62.5741 124.808 60.3558 128.072L60.0983 128.45C57.5105 132.257 51.6769 129.144 53.0531 124.751V124.751C54.2334 120.984 49.8602 117.842 46.7767 120.308L46.4481 120.57C42.8517 123.446 38.174 118.778 40.7875 114.986V114.986C43.0298 111.734 39.6523 107.498 35.9774 108.948V108.948C31.6927 110.639 28.3428 104.906 31.9591 102.053V102.053C35.0626 99.6042 33.0851 94.5648 29.144 94.8718V94.8718C24.5506 95.2295 23.0571 88.7643 27.3537 87.1009V87.1009C31.0412 85.6734 30.6376 80.2773 26.7789 79.4133V79.4133C22.2827 78.4065 22.7842 71.7914 27.3801 71.4634V71.4634C31.3239 71.182 32.5274 65.9057 29.0934 63.9459V63.9459C25.0923 61.6625 27.5425 55.494 32.0314 56.5297V56.5297C35.8822 57.4182 38.5895 52.728 35.8861 49.8453V49.8453C32.7358 46.4859 36.9083 41.3166 40.8933 43.6253V43.6253C44.3105 45.6051 48.2835 41.9174 46.5527 38.3676V38.3676C44.535 34.2294 49.8473 30.2952 52.9746 33.6739L53.2753 33.9987C55.9561 36.8951 60.7671 34.5704 60.1638 30.6701L60.0993 30.2535C59.3957 25.7051 65.669 23.7624 67.6591 27.9125L67.8608 28.3331C69.5666 31.8904 74.8469 31.0918 75.4244 27.1892L75.4914 26.737Z" fill="#FD9E0E"/>
<path d="M79.9907 107.007C95.9191 107.007 108.832 94.4252 108.832 78.9044C108.832 63.3836 95.9191 50.8016 79.9907 50.8016C64.0624 50.8016 51.1499 63.3836 51.1499 78.9044C51.1499 94.4252 64.0624 107.007 79.9907 107.007Z" fill="#382E2A"/>
<path d="M175.312 75.9041C174.246 75.9041 172.688 75.9041 170.64 75.9041C168.635 75.9041 167.27 75.7548 166.544 75.4561C165.819 75.1574 165.456 74.6881 165.456 74.0481V33.6641C165.456 32.6828 166.758 31.9148 169.36 31.3601C172.006 30.7628 174.822 30.4641 177.808 30.4641C180.795 30.4641 182.928 30.8481 184.208 31.6161C185.488 32.3841 186.235 33.1948 186.448 34.0481L190.8 50.9441H191.376L195.472 34.8161C195.771 33.6641 197.158 32.6614 199.632 31.8081C202.15 30.9121 204.902 30.4641 207.888 30.4641C210.875 30.4641 213.072 30.6988 214.48 31.1681C215.931 31.6374 216.656 32.2348 216.656 32.9601V74.0481C216.656 74.6028 215.44 75.0508 213.008 75.3921C210.576 75.7334 207.611 75.9041 204.112 75.9041C200.614 75.9041 198.864 75.2854 198.864 74.0481C198.864 70.6774 199.227 64.6828 199.952 56.0641H199.376L196.048 72.7681C195.92 73.4081 195.387 73.8774 194.448 74.1761C193.552 74.4748 192.187 74.6241 190.352 74.6241C188.518 74.6241 187.387 74.4961 186.96 74.2401C186.576 73.9841 186.32 73.4934 186.192 72.7681L182.736 56.0641H182.16C182.928 64.8534 183.312 70.8481 183.312 74.0481C183.312 75.1574 180.646 75.7761 175.312 75.9041ZM233.609 76.4801C229.726 76.4801 226.676 75.5628 224.457 73.7281C223.561 72.9601 222.772 71.8294 222.089 70.3361C221.449 68.8428 221.129 67.0934 221.129 65.0881C221.129 63.0828 221.598 61.3334 222.537 59.8401C223.518 58.3468 224.692 57.1948 226.057 56.3841C227.422 55.5734 229.022 54.9121 230.857 54.4001C233.63 53.6748 236.681 53.3121 240.009 53.3121H242.121C242.121 51.5628 241.524 50.3254 240.329 49.6001C239.817 49.3014 239.028 49.1521 237.961 49.1521C236.937 49.1521 235.678 49.4294 234.185 49.9841C232.734 50.5388 231.518 51.1148 230.537 51.7121C229.556 52.2668 228.894 52.5441 228.553 52.5441C227.785 52.5441 226.74 51.5414 225.417 49.5361C224.094 47.4881 223.433 45.6321 223.433 43.9681C223.433 43.4134 224.222 42.6881 225.801 41.7921C227.38 40.8961 229.598 40.0854 232.457 39.3601C235.358 38.5921 238.174 38.2081 240.905 38.2081C243.636 38.2081 245.982 38.4428 247.945 38.9121C249.95 39.3388 251.572 39.8721 252.809 40.5121C254.089 41.1521 255.156 42.0054 256.009 43.0721C256.905 44.1388 257.566 45.0988 257.993 45.9521C258.462 46.8054 258.804 47.9148 259.017 49.2801C259.316 50.8588 259.465 52.8001 259.465 55.1041V74.3681C259.465 74.8374 258.313 75.2214 256.009 75.5201C253.748 75.7761 251.486 75.9041 249.225 75.9041C247.006 75.9041 245.556 75.8401 244.873 75.7121C244.233 75.5841 243.849 75.4348 243.721 75.2641C243.593 75.0934 243.486 74.7948 243.401 74.3681L242.889 70.7201H242.377C241.31 74.5601 238.388 76.4801 233.609 76.4801ZM242.185 65.8561V58.3681C241.076 58.3681 240.18 58.8374 239.497 59.7761C238.814 60.7148 238.473 61.7814 238.473 62.9761C238.473 65.7921 239.113 67.2001 240.393 67.2001C240.948 67.2001 241.374 67.0721 241.673 66.8161C242.014 66.5174 242.185 66.1974 242.185 65.8561ZM281.229 55.6801V74.3681C281.229 74.8374 280.013 75.2214 277.581 75.5201C275.192 75.7761 272.696 75.9041 270.093 75.9041C267.533 75.9041 265.869 75.7974 265.101 75.5841C264.333 75.3281 263.949 74.9228 263.949 74.3681V42.8161C263.949 42.0054 265.122 41.1308 267.469 40.1921C269.858 39.2534 272.44 38.7841 275.213 38.7841C278.029 38.7841 279.608 39.5521 279.949 41.0881L280.589 44.0321H281.037C281.634 42.4108 283.064 41.0454 285.325 39.9361C287.586 38.7841 289.848 38.2081 292.109 38.2081C294.37 38.2081 295.949 38.5708 296.845 39.2961C297.784 40.0214 298.253 40.9601 298.253 42.1121C298.253 43.2214 298.168 44.6508 297.997 46.4001C297.826 48.1494 297.4 50.0481 296.717 52.0961C296.077 54.1441 295.224 55.1681 294.157 55.1681C293.73 55.1681 292.386 54.8481 290.125 54.2081C287.864 53.5681 285.986 53.2481 284.493 53.2481C283.042 53.2481 282.125 53.4614 281.741 53.8881C281.4 54.3148 281.229 54.9121 281.229 55.6801ZM319.049 42.8161V74.3681C319.049 74.8374 317.812 75.2214 315.337 75.5201C312.905 75.7761 310.388 75.9041 307.785 75.9041C305.225 75.9041 303.561 75.7974 302.793 75.5841C302.068 75.3281 301.705 74.9228 301.705 74.3681V43.9681C301.705 43.0294 302.9 42.1121 305.289 41.2161C307.721 40.2774 310.366 39.8081 313.225 39.8081C317.108 39.8081 319.049 40.8108 319.049 42.8161ZM310.345 25.9841C313.161 25.9841 315.358 26.4108 316.937 27.2641C318.558 28.0748 319.369 29.5681 319.369 31.7441C319.369 35.5841 316.382 37.5041 310.409 37.5041C304.436 37.5041 301.449 35.5841 301.449 31.7441C301.449 27.9041 304.414 25.9841 310.345 25.9841ZM362.416 54.6561V74.3681C362.416 74.8374 361.2 75.2214 358.768 75.5201C356.336 75.7761 353.819 75.9041 351.216 75.9041C348.656 75.9041 346.992 75.7974 346.224 75.5841C345.499 75.3281 345.136 74.9228 345.136 74.3681V54.0161C345.136 52.0961 345.051 50.8374 344.88 50.2401C344.752 49.6428 344.624 49.1094 344.496 48.6401C344.197 47.8294 343.664 47.4241 342.896 47.4241C341.701 47.4241 341.104 48.0001 341.104 49.1521V74.3681C341.104 74.8374 339.888 75.2214 337.456 75.5201C335.067 75.7761 332.571 75.9041 329.968 75.9041C327.408 75.9041 325.744 75.7974 324.976 75.5841C324.208 75.3281 323.824 74.9228 323.824 74.3681V42.8161C323.824 41.9201 325.04 41.0241 327.472 40.1281C329.947 39.2321 332.549 38.7841 335.28 38.7841C338.011 38.7841 339.547 39.5734 339.888 41.1521L340.464 43.9681H340.912C342.149 41.4934 344.283 39.7654 347.312 38.7841C348.549 38.4001 349.915 38.2081 351.408 38.2081C355.717 38.2081 358.619 39.5094 360.112 42.1121C361.648 44.6721 362.416 48.8534 362.416 54.6561ZM379.046 76.4801C375.164 76.4801 372.113 75.5628 369.894 73.7281C368.998 72.9601 368.209 71.8294 367.526 70.3361C366.886 68.8428 366.566 67.0934 366.566 65.0881C366.566 63.0828 367.036 61.3334 367.974 59.8401C368.956 58.3468 370.129 57.1948 371.494 56.3841C372.86 55.5734 374.46 54.9121 376.294 54.4001C379.068 53.6748 382.118 53.3121 385.446 53.3121H387.558C387.558 51.5628 386.961 50.3254 385.766 49.6001C385.254 49.3014 384.465 49.1521 383.398 49.1521C382.374 49.1521 381.116 49.4294 379.622 49.9841C378.172 50.5388 376.956 51.1148 375.974 51.7121C374.993 52.2668 374.332 52.5441 373.99 52.5441C373.222 52.5441 372.177 51.5414 370.854 49.5361C369.532 47.4881 368.87 45.6321 368.87 43.9681C368.87 43.4134 369.66 42.6881 371.238 41.7921C372.817 40.8961 375.036 40.0854 377.894 39.3601C380.796 38.5921 383.612 38.2081 386.342 38.2081C389.073 38.2081 391.42 38.4428 393.382 38.9121C395.388 39.3388 397.009 39.8721 398.246 40.5121C399.526 41.1521 400.593 42.0054 401.446 43.0721C402.342 44.1388 403.004 45.0988 403.43 45.9521C403.9 46.8054 404.241 47.9148 404.454 49.2801C404.753 50.8588 404.902 52.8001 404.902 55.1041V74.3681C404.902 74.8374 403.75 75.2214 401.446 75.5201C399.185 75.7761 396.924 75.9041 394.662 75.9041C392.444 75.9041 390.993 75.8401 390.31 75.7121C389.67 75.5841 389.286 75.4348 389.158 75.2641C389.03 75.0934 388.924 74.7948 388.838 74.3681L388.326 70.7201H387.814C386.748 74.5601 383.825 76.4801 379.046 76.4801ZM387.622 65.8561V58.3681C386.513 58.3681 385.617 58.8374 384.934 59.7761C384.252 60.7148 383.91 61.7814 383.91 62.9761C383.91 65.7921 384.55 67.2001 385.83 67.2001C386.385 67.2001 386.812 67.0721 387.11 66.8161C387.452 66.5174 387.622 66.1974 387.622 65.8561Z" fill="#382E2A"/>
<path d="M170.832 132.904C168.699 132.904 167.27 132.797 166.544 132.584C165.819 132.328 165.456 131.923 165.456 131.368V91.5601C165.456 90.6214 166.694 89.7041 169.168 88.8081C171.643 87.8694 174.416 87.4001 177.488 87.4001C180.219 87.4001 182.011 87.9761 182.864 89.1281C183.163 89.5548 183.312 89.9814 183.312 90.4081V118.76C188.518 118.419 192.443 118.248 195.088 118.248C195.984 118.248 196.432 119.677 196.432 122.536C196.432 125.352 196.24 127.784 195.856 129.832C195.472 131.88 194.96 132.904 194.32 132.904H170.832ZM212.109 133.48C208.226 133.48 205.176 132.563 202.957 130.728C202.061 129.96 201.272 128.829 200.589 127.336C199.949 125.843 199.629 124.093 199.629 122.088C199.629 120.083 200.098 118.333 201.037 116.84C202.018 115.347 203.192 114.195 204.557 113.384C205.922 112.573 207.522 111.912 209.357 111.4C212.13 110.675 215.181 110.312 218.509 110.312H220.621C220.621 108.563 220.024 107.325 218.829 106.6C218.317 106.301 217.528 106.152 216.461 106.152C215.437 106.152 214.178 106.429 212.685 106.984C211.234 107.539 210.018 108.115 209.037 108.712C208.056 109.267 207.394 109.544 207.053 109.544C206.285 109.544 205.24 108.541 203.917 106.536C202.594 104.488 201.933 102.632 201.933 100.968C201.933 100.413 202.722 99.6881 204.301 98.7921C205.88 97.8961 208.098 97.0854 210.957 96.3601C213.858 95.5921 216.674 95.2081 219.405 95.2081C222.136 95.2081 224.482 95.4428 226.445 95.9121C228.45 96.3388 230.072 96.8721 231.309 97.5121C232.589 98.1521 233.656 99.0054 234.509 100.072C235.405 101.139 236.066 102.099 236.493 102.952C236.962 103.805 237.304 104.915 237.517 106.28C237.816 107.859 237.965 109.8 237.965 112.104V131.368C237.965 131.837 236.813 132.221 234.509 132.52C232.248 132.776 229.986 132.904 227.725 132.904C225.506 132.904 224.056 132.84 223.373 132.712C222.733 132.584 222.349 132.435 222.221 132.264C222.093 132.093 221.986 131.795 221.901 131.368L221.389 127.72H220.877C219.81 131.56 216.888 133.48 212.109 133.48ZM220.685 122.856V115.368C219.576 115.368 218.68 115.837 217.997 116.776C217.314 117.715 216.973 118.781 216.973 119.976C216.973 122.792 217.613 124.2 218.893 124.2C219.448 124.2 219.874 124.072 220.173 123.816C220.514 123.517 220.685 123.197 220.685 122.856ZM264.017 128.744V124.968H263.505C263.292 125.181 262.972 125.459 262.545 125.8C262.118 126.141 261.116 126.589 259.537 127.144C257.958 127.699 256.188 127.976 254.225 127.976C252.305 127.976 250.598 127.677 249.105 127.08C247.654 126.44 246.502 125.608 245.649 124.584C244.796 123.517 244.134 122.109 243.665 120.36C242.854 117.587 242.449 113.661 242.449 108.584V99.7521C242.449 98.8561 243.708 97.9814 246.225 97.1281C248.742 96.2321 251.388 95.7841 254.161 95.7841C257.873 95.7841 259.729 96.7441 259.729 98.6641V106.728C259.729 115.261 260.412 119.528 261.777 119.528C262.588 119.528 262.993 118.952 262.993 117.8V99.7521C262.993 98.8561 264.337 97.9814 267.025 97.1281C269.713 96.2321 272.593 95.7841 275.665 95.7841C278.737 95.7841 280.273 96.6161 280.273 98.2801V128.552C280.273 138.067 273.83 142.824 260.945 142.824C254.161 142.824 249.553 142.163 247.121 140.84C246.054 140.243 245.521 139.624 245.521 138.984C245.521 137.96 245.948 136.232 246.801 133.8C247.654 131.411 248.444 130.216 249.169 130.216C249.34 130.216 249.937 130.344 250.961 130.6C254.118 131.453 256.742 131.88 258.833 131.88C260.966 131.88 262.353 131.645 262.993 131.176C263.676 130.707 264.017 129.896 264.017 128.744Z" fill="#382E2A"/>
</svg>
