<svg width="398" height="128" viewBox="0 0 398 128" fill="none" xmlns="http://www.w3.org/2000/svg">
<path d="M60.1319 3.41441C60.8056 -1.13813 67.372 -1.13814 68.0457 3.4144L68.7182 7.95835C69.2957 11.861 74.576 12.6596 76.2818 9.1023L78.2732 4.94948C80.2633 0.799391 86.5366 2.74203 85.833 7.29051L85.1362 11.7949C84.5328 15.6952 89.3438 18.0199 92.0247 15.1235L95.1408 11.7569C98.268 8.37819 103.689 12.0888 101.672 16.227L99.6956 20.2801C97.9648 23.8299 101.879 27.4739 105.296 25.4942L109.229 23.216C113.214 20.9074 117.302 26.0539 114.151 29.4133L111.099 32.6683C108.396 35.551 111.065 40.1905 114.916 39.302L119.296 38.2915C123.785 37.2558 126.179 43.3797 122.178 45.6631L118.324 47.8627C114.89 49.8224 116.078 55.0452 120.022 55.3266L124.462 55.6434C129.057 55.9714 129.547 62.5299 125.051 63.5366L120.718 64.5067C116.86 65.3707 116.461 70.7127 120.148 72.1403L124.285 73.7418C128.582 75.4051 127.124 81.8177 122.531 81.4599L118.072 81.1127C114.131 80.8057 112.18 85.7925 115.284 88.241L118.775 90.995C122.391 93.848 119.113 99.5469 114.829 97.8561L110.625 96.1973C106.95 94.7471 103.621 98.9358 105.863 102.188L108.408 105.88C111.022 109.671 106.213 114.15 102.617 111.274L99.0491 108.422C95.9657 105.956 91.5539 108.974 92.7342 112.742L94.0894 117.067C95.4656 121.46 89.5521 124.319 86.9643 120.512L84.3793 116.709C82.1611 113.446 77.0584 115.025 77.0713 118.971L77.0863 123.55C77.1014 128.152 70.6088 129.134 69.2616 124.734L67.9136 120.331C66.7588 116.559 61.4189 116.559 60.2641 120.331L58.9165 124.733C57.5693 129.133 51.0767 128.151 51.0918 123.549L51.1068 118.971C51.1197 115.025 46.017 113.446 43.7988 116.709L41.213 120.513C38.6252 124.32 32.7117 121.461 34.0879 117.068L35.4434 112.742C36.6237 108.974 32.2119 105.956 29.1284 108.422L25.5614 111.274C21.965 114.149 17.1567 109.67 19.7702 105.879L22.3146 102.188C24.5569 98.9357 21.2279 94.7471 17.553 96.1973L13.349 97.8562C9.06434 99.547 5.78694 93.8481 9.40324 90.9951L12.8942 88.241C15.9977 85.7925 14.0472 80.8057 10.1061 81.1127L5.64704 81.4599C1.05367 81.8177 -0.404208 75.4051 3.89234 73.7418L8.02921 72.1403C11.7168 70.7127 11.3178 65.3707 7.45913 64.5067L3.12688 63.5367C-1.36936 62.5299 -0.879713 55.9714 3.71617 55.6435L8.15658 55.3266C12.1004 55.0452 13.2885 49.8224 9.8545 47.8627L6.00053 45.6632C1.9994 43.3798 4.39356 37.2558 8.88246 38.2916L13.2619 39.302C17.1127 40.1905 19.7823 35.551 17.079 32.6683L14.0266 29.4133C10.8763 26.0539 14.9645 20.9074 18.9495 23.216L22.8818 25.4942C26.299 27.4739 30.2132 23.8298 28.4824 20.28L26.5065 16.2277C24.4889 12.0895 29.9102 8.37886 33.0375 11.7576L36.1529 15.1234C38.8338 18.0198 43.6447 15.6951 43.0414 11.7948L42.3446 7.29047C41.641 2.742 47.9143 0.799364 49.9044 4.94945L51.8958 9.1023C53.6016 12.6596 58.8819 11.861 59.4594 7.95836L60.1319 3.41441Z" fill="#FD9E0E"/>
<path d="M64.6866 94.599C82.2395 94.599 96.469 80.7336 96.469 63.6298C96.469 46.526 82.2395 32.6606 64.6866 32.6606C47.1336 32.6606 32.9041 46.526 32.9041 63.6298C32.9041 80.7336 47.1336 94.599 64.6866 94.599Z" fill="#382E2A"/>
<path d="M168.056 60.6294C166.99 60.6294 165.432 60.6294 163.384 60.6294C161.379 60.6294 160.014 60.4801 159.288 60.1814C158.563 59.8828 158.2 59.4134 158.2 58.7734V18.3894C158.2 17.4081 159.502 16.6401 162.104 16.0854C164.75 15.4881 167.566 15.1894 170.552 15.1894C173.539 15.1894 175.672 15.5734 176.952 16.3414C178.232 17.1094 178.979 17.9201 179.192 18.7734L183.544 35.6694H184.12L188.216 19.5414C188.515 18.3894 189.902 17.3868 192.376 16.5334C194.894 15.6374 197.646 15.1894 200.632 15.1894C203.619 15.1894 205.816 15.4241 207.224 15.8934C208.675 16.3628 209.4 16.9601 209.4 17.6854V58.7734C209.4 59.3281 208.184 59.7761 205.752 60.1174C203.32 60.4588 200.355 60.6294 196.856 60.6294C193.358 60.6294 191.608 60.0108 191.608 58.7734C191.608 55.4028 191.971 49.4081 192.696 40.7894H192.12L188.792 57.4934C188.664 58.1334 188.131 58.6028 187.192 58.9014C186.296 59.2001 184.931 59.3494 183.096 59.3494C181.262 59.3494 180.131 59.2214 179.704 58.9654C179.32 58.7094 179.064 58.2188 178.936 57.4934L175.48 40.7894H174.904C175.672 49.5788 176.056 55.5734 176.056 58.7734C176.056 59.8828 173.39 60.5014 168.056 60.6294Z" fill="#382E2A"/>
<path d="M226.353 61.2054C222.47 61.2054 219.42 60.2881 217.201 58.4534C216.305 57.6854 215.516 56.5548 214.833 55.0614C214.193 53.5681 213.873 51.8188 213.873 49.8134C213.873 47.8081 214.342 46.0588 215.281 44.5654C216.262 43.0721 217.436 41.9201 218.801 41.1094C220.166 40.2988 221.766 39.6374 223.601 39.1254C226.374 38.4001 229.425 38.0374 232.753 38.0374H234.865C234.865 36.2881 234.268 35.0508 233.073 34.3254C232.561 34.0268 231.772 33.8774 230.705 33.8774C229.681 33.8774 228.422 34.1548 226.929 34.7094C225.478 35.2641 224.262 35.8401 223.281 36.4374C222.3 36.9921 221.638 37.2694 221.297 37.2694C220.529 37.2694 219.484 36.2668 218.161 34.2614C216.838 32.2134 216.177 30.3574 216.177 28.6934C216.177 28.1388 216.966 27.4134 218.545 26.5174C220.124 25.6214 222.342 24.8108 225.201 24.0854C228.102 23.3174 230.918 22.9334 233.649 22.9334C236.38 22.9334 238.726 23.1681 240.689 23.6374C242.694 24.0641 244.316 24.5974 245.553 25.2374C246.833 25.8774 247.9 26.7308 248.753 27.7974C249.649 28.8641 250.31 29.8241 250.737 30.6774C251.206 31.5308 251.548 32.6401 251.761 34.0054C252.06 35.5841 252.209 37.5254 252.209 39.8294V59.0934C252.209 59.5628 251.057 59.9468 248.753 60.2454C246.492 60.5014 244.23 60.6294 241.969 60.6294C239.75 60.6294 238.3 60.5654 237.617 60.4374C236.977 60.3094 236.593 60.1601 236.465 59.9894C236.337 59.8188 236.23 59.5201 236.145 59.0934L235.633 55.4454H235.121C234.054 59.2854 231.132 61.2054 226.353 61.2054ZM234.929 50.5814V43.0934C233.82 43.0934 232.924 43.5628 232.241 44.5014C231.558 45.4401 231.217 46.5068 231.217 47.7014C231.217 50.5174 231.857 51.9254 233.137 51.9254C233.692 51.9254 234.118 51.7974 234.417 51.5414C234.758 51.2428 234.929 50.9228 234.929 50.5814Z" fill="#382E2A"/>
<path d="M273.973 40.4054V59.0934C273.973 59.5628 272.757 59.9468 270.325 60.2454C267.936 60.5014 265.44 60.6294 262.837 60.6294C260.277 60.6294 258.613 60.5228 257.845 60.3094C257.077 60.0534 256.693 59.6481 256.693 59.0934V27.5414C256.693 26.7308 257.866 25.8561 260.213 24.9174C262.602 23.9788 265.184 23.5094 267.957 23.5094C270.773 23.5094 272.352 24.2774 272.693 25.8134L273.333 28.7574H273.781C274.378 27.1361 275.808 25.7708 278.069 24.6614C280.33 23.5094 282.592 22.9334 284.853 22.9334C287.114 22.9334 288.693 23.2961 289.589 24.0214C290.528 24.7468 290.997 25.6854 290.997 26.8374C290.997 27.9468 290.912 29.3761 290.741 31.1254C290.57 32.8748 290.144 34.7734 289.461 36.8214C288.821 38.8694 287.968 39.8934 286.901 39.8934C286.474 39.8934 285.13 39.5734 282.869 38.9334C280.608 38.2934 278.73 37.9734 277.237 37.9734C275.786 37.9734 274.869 38.1868 274.485 38.6134C274.144 39.0401 273.973 39.6374 273.973 40.4054Z" fill="#382E2A"/>
<path d="M311.793 27.5414V59.0934C311.793 59.5628 310.556 59.9468 308.081 60.2454C305.649 60.5014 303.132 60.6294 300.529 60.6294C297.969 60.6294 296.305 60.5228 295.537 60.3094C294.812 60.0534 294.449 59.6481 294.449 59.0934V28.6934C294.449 27.7548 295.644 26.8374 298.033 25.9414C300.465 25.0028 303.11 24.5334 305.969 24.5334C309.852 24.5334 311.793 25.5361 311.793 27.5414ZM303.089 10.7094C305.905 10.7094 308.102 11.1361 309.681 11.9894C311.302 12.8001 312.113 14.2934 312.113 16.4694C312.113 20.3094 309.126 22.2294 303.153 22.2294C297.18 22.2294 294.193 20.3094 294.193 16.4694C294.193 12.6294 297.158 10.7094 303.089 10.7094Z" fill="#382E2A"/>
<path d="M355.16 39.3814V59.0934C355.16 59.5628 353.944 59.9468 351.512 60.2454C349.08 60.5014 346.563 60.6294 343.96 60.6294C341.4 60.6294 339.736 60.5228 338.968 60.3094C338.243 60.0534 337.88 59.6481 337.88 59.0934V38.7414C337.88 36.8214 337.795 35.5628 337.624 34.9654C337.496 34.3681 337.368 33.8348 337.24 33.3654C336.941 32.5548 336.408 32.1494 335.64 32.1494C334.445 32.1494 333.848 32.7254 333.848 33.8774V59.0934C333.848 59.5628 332.632 59.9468 330.2 60.2454C327.811 60.5014 325.315 60.6294 322.712 60.6294C320.152 60.6294 318.488 60.5228 317.72 60.3094C316.952 60.0534 316.568 59.6481 316.568 59.0934V27.5414C316.568 26.6454 317.784 25.7494 320.216 24.8534C322.691 23.9574 325.293 23.5094 328.024 23.5094C330.755 23.5094 332.291 24.2988 332.632 25.8774L333.208 28.6934H333.656C334.893 26.2188 337.027 24.4908 340.056 23.5094C341.293 23.1254 342.659 22.9334 344.152 22.9334C348.461 22.9334 351.363 24.2348 352.856 26.8374C354.392 29.3974 355.16 33.5788 355.16 39.3814Z" fill="#382E2A"/>
<path d="M371.79 61.2054C367.908 61.2054 364.857 60.2881 362.638 58.4534C361.742 57.6854 360.953 56.5548 360.27 55.0614C359.63 53.5681 359.31 51.8188 359.31 49.8134C359.31 47.8081 359.78 46.0588 360.718 44.5654C361.7 43.0721 362.873 41.9201 364.238 41.1094C365.604 40.2988 367.204 39.6374 369.038 39.1254C371.812 38.4001 374.862 38.0374 378.19 38.0374H380.302C380.302 36.2881 379.705 35.0508 378.51 34.3254C377.998 34.0268 377.209 33.8774 376.142 33.8774C375.118 33.8774 373.86 34.1548 372.366 34.7094C370.916 35.2641 369.7 35.8401 368.718 36.4374C367.737 36.9921 367.076 37.2694 366.734 37.2694C365.966 37.2694 364.921 36.2668 363.598 34.2614C362.276 32.2134 361.614 30.3574 361.614 28.6934C361.614 28.1388 362.404 27.4134 363.982 26.5174C365.561 25.6214 367.78 24.8108 370.638 24.0854C373.54 23.3174 376.356 22.9334 379.086 22.9334C381.817 22.9334 384.164 23.1681 386.126 23.6374C388.132 24.0641 389.753 24.5974 390.99 25.2374C392.27 25.8774 393.337 26.7308 394.19 27.7974C395.086 28.8641 395.748 29.8241 396.174 30.6774C396.644 31.5308 396.985 32.6401 397.198 34.0054C397.497 35.5841 397.646 37.5254 397.646 39.8294V59.0934C397.646 59.5628 396.494 59.9468 394.19 60.2454C391.929 60.5014 389.668 60.6294 387.406 60.6294C385.188 60.6294 383.737 60.5654 383.054 60.4374C382.414 60.3094 382.03 60.1601 381.902 59.9894C381.774 59.8188 381.668 59.5201 381.582 59.0934L381.07 55.4454H380.558C379.492 59.2854 376.569 61.2054 371.79 61.2054ZM380.366 50.5814V43.0934C379.257 43.0934 378.361 43.5628 377.678 44.5014C376.996 45.4401 376.654 46.5068 376.654 47.7014C376.654 50.5174 377.294 51.9254 378.574 51.9254C379.129 51.9254 379.556 51.7974 379.854 51.5414C380.196 51.2428 380.366 50.9228 380.366 50.5814Z" fill="#382E2A"/>
<path d="M163.576 117.629C161.443 117.629 160.014 117.523 159.288 117.309C158.563 117.053 158.2 116.648 158.2 116.093V76.2854C158.2 75.3468 159.438 74.4294 161.912 73.5334C164.387 72.5948 167.16 72.1254 170.232 72.1254C172.963 72.1254 174.755 72.7014 175.608 73.8534C175.907 74.2801 176.056 74.7068 176.056 75.1334V103.485C181.262 103.144 185.187 102.973 187.832 102.973C188.728 102.973 189.176 104.403 189.176 107.261C189.176 110.077 188.984 112.509 188.6 114.557C188.216 116.605 187.704 117.629 187.064 117.629H163.576Z" fill="#382E2A"/>
<path d="M204.853 118.205C200.97 118.205 197.92 117.288 195.701 115.453C194.805 114.685 194.016 113.555 193.333 112.061C192.693 110.568 192.373 108.819 192.373 106.813C192.373 104.808 192.842 103.059 193.781 101.565C194.762 100.072 195.936 98.9201 197.301 98.1094C198.666 97.2988 200.266 96.6374 202.101 96.1254C204.874 95.4001 207.925 95.0374 211.253 95.0374H213.365C213.365 93.2881 212.768 92.0508 211.573 91.3254C211.061 91.0268 210.272 90.8774 209.205 90.8774C208.181 90.8774 206.922 91.1548 205.429 91.7094C203.978 92.2641 202.762 92.8401 201.781 93.4374C200.8 93.9921 200.138 94.2694 199.797 94.2694C199.029 94.2694 197.984 93.2668 196.661 91.2614C195.338 89.2134 194.677 87.3574 194.677 85.6934C194.677 85.1388 195.466 84.4134 197.045 83.5174C198.624 82.6214 200.842 81.8108 203.701 81.0854C206.602 80.3174 209.418 79.9334 212.149 79.9334C214.88 79.9334 217.226 80.1681 219.189 80.6374C221.194 81.0641 222.816 81.5974 224.053 82.2374C225.333 82.8774 226.4 83.7308 227.253 84.7974C228.149 85.8641 228.81 86.8241 229.237 87.6774C229.706 88.5308 230.048 89.6401 230.261 91.0054C230.56 92.5841 230.709 94.5254 230.709 96.8294V116.093C230.709 116.563 229.557 116.947 227.253 117.245C224.992 117.501 222.73 117.629 220.469 117.629C218.25 117.629 216.8 117.565 216.117 117.437C215.477 117.309 215.093 117.16 214.965 116.989C214.837 116.819 214.73 116.52 214.645 116.093L214.133 112.445H213.621C212.554 116.285 209.632 118.205 204.853 118.205ZM213.429 107.581V100.093C212.32 100.093 211.424 100.563 210.741 101.501C210.058 102.44 209.717 103.507 209.717 104.701C209.717 107.517 210.357 108.925 211.637 108.925C212.192 108.925 212.618 108.797 212.917 108.541C213.258 108.243 213.429 107.923 213.429 107.581Z" fill="#382E2A"/>
<path d="M256.761 113.469V109.693H256.249C256.036 109.907 255.716 110.184 255.289 110.525C254.862 110.867 253.86 111.315 252.281 111.869C250.702 112.424 248.932 112.701 246.969 112.701C245.049 112.701 243.342 112.403 241.849 111.805C240.398 111.165 239.246 110.333 238.393 109.309C237.54 108.243 236.878 106.835 236.409 105.085C235.598 102.312 235.193 98.3868 235.193 93.3094V84.4774C235.193 83.5814 236.452 82.7068 238.969 81.8534C241.486 80.9574 244.132 80.5094 246.905 80.5094C250.617 80.5094 252.473 81.4694 252.473 83.3894V91.4534C252.473 99.9868 253.156 104.253 254.521 104.253C255.332 104.253 255.737 103.677 255.737 102.525V84.4774C255.737 83.5814 257.081 82.7068 259.769 81.8534C262.457 80.9574 265.337 80.5094 268.409 80.5094C271.481 80.5094 273.017 81.3414 273.017 83.0054V113.277C273.017 122.792 266.574 127.549 253.689 127.549C246.905 127.549 242.297 126.888 239.865 125.565C238.798 124.968 238.265 124.349 238.265 123.709C238.265 122.685 238.692 120.957 239.545 118.525C240.398 116.136 241.188 114.941 241.913 114.941C242.084 114.941 242.681 115.069 243.705 115.325C246.862 116.179 249.486 116.605 251.577 116.605C253.71 116.605 255.097 116.371 255.737 115.901C256.42 115.432 256.761 114.621 256.761 113.469Z" fill="#382E2A"/>
</svg>
