<svg width="104" height="44" viewBox="0 0 104 44" fill="none" xmlns="http://www.w3.org/2000/svg">
<path d="M21 4L22.3451 13.1516L26.3205 4.80418L24.9159 13.9468L31.1682 7.14527L27.1388 15.4666L35.1125 10.8153L28.8162 17.5758L37.8028 15.488L29.7991 20.0872L39 20.7483L30 22.7774L38.5979 26.1289L29.4014 25.4077L36.6322 31.1516L28.0563 27.7441L33.2775 35.3701L26.0841 29.579L28.8318 38.4096L23.6603 30.7495L23.6904 40L21 31.1516L18.3097 40L18.3398 30.7495L13.1682 38.4096L15.9159 29.579L8.72257 35.3701L13.9438 27.7441L5.36784 31.1516L12.5987 25.4077L3.40209 26.1289L12 22.7774L3 20.7483L12.2011 20.0872L4.19728 15.488L13.1839 17.5758L6.88758 10.8153L14.8613 15.4666L10.8318 7.14527L17.0841 13.9468L15.6795 4.80418L19.6549 13.1516L21 4Z" fill="#EFBDC2"/>
<mask id="path-2-outside-1_8_9" maskUnits="userSpaceOnUse" x="21" y="4" width="80" height="20" fill="black">
<rect fill="white" x="21" y="4" width="80" height="20"/>
<path d="M40.55 7.932L41.954 21H37.292L37.004 11.676L35.204 21H30.488L28.652 11.748L28.382 21H23.72L25.124 7.932H31.244L32.81 16.446L34.178 7.932H40.55ZM54.9279 18.012C54.9279 18.42 54.9759 18.708 55.0719 18.876C55.1679 19.044 55.3599 19.164 55.6479 19.236L55.5759 20.928C55.1919 20.988 54.8559 21.03 54.5679 21.054C54.2919 21.078 53.9199 21.09 53.4519 21.09C52.4199 21.09 51.7359 20.862 51.3999 20.406C51.0639 19.938 50.8959 19.344 50.8959 18.624V18.174C50.5479 19.158 50.0379 19.89 49.3659 20.37C48.7059 20.85 47.8599 21.09 46.8279 21.09C45.6279 21.09 44.7219 20.85 44.1099 20.37C43.5099 19.89 43.2099 19.176 43.2099 18.228C43.2099 17.448 43.4679 16.836 43.9839 16.392C44.4999 15.948 45.2979 15.642 46.3779 15.474C45.4659 14.826 44.5539 14.262 43.6419 13.782C44.3619 12.87 45.1839 12.18 46.1079 11.712C47.0319 11.232 48.1539 10.992 49.4739 10.992C51.3219 10.992 52.6899 11.394 53.5779 12.198C54.4779 12.99 54.9279 14.214 54.9279 15.87V18.012ZM49.8519 14.16C49.2399 14.16 48.6999 14.262 48.2319 14.466C47.7639 14.67 47.3439 14.976 46.9719 15.384C47.6919 15.3 48.5919 15.258 49.6719 15.258C50.1159 15.258 50.4279 15.204 50.6079 15.096C50.7879 14.988 50.8779 14.85 50.8779 14.682C50.8779 14.538 50.7879 14.418 50.6079 14.322C50.4279 14.214 50.1759 14.16 49.8519 14.16ZM47.9619 18.156C48.6339 18.156 49.2399 18.03 49.7799 17.778C50.3199 17.514 50.6919 17.172 50.8959 16.752V16.284C50.6079 16.428 50.2899 16.542 49.9419 16.626C49.5939 16.698 49.1739 16.77 48.6819 16.842L48.0339 16.95C47.3619 17.082 47.0259 17.31 47.0259 17.634C47.0259 17.982 47.3379 18.156 47.9619 18.156ZM60.9077 13.836C61.4117 12.024 62.6657 11.118 64.6697 11.118C65.0177 11.118 65.3537 11.142 65.6777 11.19L65.1017 15.222C64.2377 14.898 63.5297 14.736 62.9777 14.736C62.2937 14.736 61.7897 14.94 61.4657 15.348C61.1417 15.756 60.9797 16.302 60.9797 16.986V16.968L60.9617 18.156C60.9617 19.008 60.9857 19.956 61.0337 21H56.7317C56.8277 19.272 56.8757 17.64 56.8757 16.104C56.8757 14.568 56.8277 12.924 56.7317 11.172C57.5237 11.208 58.1297 11.226 58.5497 11.226C58.9937 11.226 59.5997 11.208 60.3677 11.172L60.9077 13.836ZM69.5324 10.11C68.7764 10.11 68.2124 9.924 67.8404 9.552C67.4804 9.18 67.3004 8.694 67.3004 8.094C67.3004 7.506 67.4804 7.02 67.8404 6.636C68.2124 6.252 68.7764 6.06 69.5324 6.06C70.2524 6.06 70.8044 6.258 71.1884 6.654C71.5724 7.038 71.7644 7.518 71.7644 8.094C71.7644 8.694 71.5784 9.18 71.2064 9.552C70.8344 9.924 70.2764 10.11 69.5324 10.11ZM67.4444 21C67.5284 19.068 67.5704 17.472 67.5704 16.212C67.5704 14.712 67.5224 13.032 67.4264 11.172H71.7464C71.6504 12.96 71.6024 14.64 71.6024 16.212C71.6024 17.532 71.6444 19.128 71.7284 21H67.4444ZM80.3982 21C80.4702 19.236 80.5062 17.61 80.5062 16.122C80.5062 15.594 80.3742 15.174 80.1102 14.862C79.8582 14.55 79.5342 14.394 79.1382 14.394C78.7422 14.394 78.4062 14.574 78.1302 14.934C77.8542 15.282 77.6922 15.762 77.6442 16.374C77.6202 17.286 77.6082 17.934 77.6082 18.318C77.6082 19.134 77.6322 20.028 77.6802 21H73.3782C73.4742 19.272 73.5222 17.64 73.5222 16.104C73.5222 14.568 73.4742 12.924 73.3782 11.172C74.1702 11.208 74.7762 11.226 75.1962 11.226C75.6402 11.226 76.2462 11.208 77.0142 11.172L77.5362 13.818C77.8122 12.858 78.2442 12.15 78.8322 11.694C79.4202 11.226 80.1042 10.992 80.8842 10.992C81.6042 10.992 82.2282 11.154 82.7562 11.478C83.2842 11.79 83.6802 12.216 83.9442 12.756C84.2202 13.296 84.3582 13.902 84.3582 14.574V17.166C84.3582 18.762 84.3882 20.04 84.4482 21H80.3982ZM97.4318 18.012C97.4318 18.42 97.4798 18.708 97.5758 18.876C97.6718 19.044 97.8638 19.164 98.1518 19.236L98.0798 20.928C97.6958 20.988 97.3598 21.03 97.0718 21.054C96.7958 21.078 96.4238 21.09 95.9558 21.09C94.9238 21.09 94.2398 20.862 93.9038 20.406C93.5678 19.938 93.3998 19.344 93.3998 18.624V18.174C93.0518 19.158 92.5418 19.89 91.8698 20.37C91.2098 20.85 90.3638 21.09 89.3318 21.09C88.1318 21.09 87.2258 20.85 86.6138 20.37C86.0138 19.89 85.7138 19.176 85.7138 18.228C85.7138 17.448 85.9718 16.836 86.4878 16.392C87.0038 15.948 87.8018 15.642 88.8818 15.474C87.9698 14.826 87.0578 14.262 86.1458 13.782C86.8658 12.87 87.6878 12.18 88.6118 11.712C89.5358 11.232 90.6578 10.992 91.9778 10.992C93.8258 10.992 95.1938 11.394 96.0818 12.198C96.9818 12.99 97.4318 14.214 97.4318 15.87V18.012ZM92.3558 14.16C91.7438 14.16 91.2038 14.262 90.7358 14.466C90.2678 14.67 89.8478 14.976 89.4758 15.384C90.1958 15.3 91.0958 15.258 92.1758 15.258C92.6198 15.258 92.9318 15.204 93.1118 15.096C93.2918 14.988 93.3818 14.85 93.3818 14.682C93.3818 14.538 93.2918 14.418 93.1118 14.322C92.9318 14.214 92.6798 14.16 92.3558 14.16ZM90.4658 18.156C91.1378 18.156 91.7438 18.03 92.2838 17.778C92.8238 17.514 93.1958 17.172 93.3998 16.752V16.284C93.1118 16.428 92.7938 16.542 92.4458 16.626C92.0978 16.698 91.6778 16.77 91.1858 16.842L90.5378 16.95C89.8658 17.082 89.5298 17.31 89.5298 17.634C89.5298 17.982 89.8418 18.156 90.4658 18.156Z"/>
</mask>
<path d="M40.55 7.932L41.954 21H37.292L37.004 11.676L35.204 21H30.488L28.652 11.748L28.382 21H23.72L25.124 7.932H31.244L32.81 16.446L34.178 7.932H40.55ZM54.9279 18.012C54.9279 18.42 54.9759 18.708 55.0719 18.876C55.1679 19.044 55.3599 19.164 55.6479 19.236L55.5759 20.928C55.1919 20.988 54.8559 21.03 54.5679 21.054C54.2919 21.078 53.9199 21.09 53.4519 21.09C52.4199 21.09 51.7359 20.862 51.3999 20.406C51.0639 19.938 50.8959 19.344 50.8959 18.624V18.174C50.5479 19.158 50.0379 19.89 49.3659 20.37C48.7059 20.85 47.8599 21.09 46.8279 21.09C45.6279 21.09 44.7219 20.85 44.1099 20.37C43.5099 19.89 43.2099 19.176 43.2099 18.228C43.2099 17.448 43.4679 16.836 43.9839 16.392C44.4999 15.948 45.2979 15.642 46.3779 15.474C45.4659 14.826 44.5539 14.262 43.6419 13.782C44.3619 12.87 45.1839 12.18 46.1079 11.712C47.0319 11.232 48.1539 10.992 49.4739 10.992C51.3219 10.992 52.6899 11.394 53.5779 12.198C54.4779 12.99 54.9279 14.214 54.9279 15.87V18.012ZM49.8519 14.16C49.2399 14.16 48.6999 14.262 48.2319 14.466C47.7639 14.67 47.3439 14.976 46.9719 15.384C47.6919 15.3 48.5919 15.258 49.6719 15.258C50.1159 15.258 50.4279 15.204 50.6079 15.096C50.7879 14.988 50.8779 14.85 50.8779 14.682C50.8779 14.538 50.7879 14.418 50.6079 14.322C50.4279 14.214 50.1759 14.16 49.8519 14.16ZM47.9619 18.156C48.6339 18.156 49.2399 18.03 49.7799 17.778C50.3199 17.514 50.6919 17.172 50.8959 16.752V16.284C50.6079 16.428 50.2899 16.542 49.9419 16.626C49.5939 16.698 49.1739 16.77 48.6819 16.842L48.0339 16.95C47.3619 17.082 47.0259 17.31 47.0259 17.634C47.0259 17.982 47.3379 18.156 47.9619 18.156ZM60.9077 13.836C61.4117 12.024 62.6657 11.118 64.6697 11.118C65.0177 11.118 65.3537 11.142 65.6777 11.19L65.1017 15.222C64.2377 14.898 63.5297 14.736 62.9777 14.736C62.2937 14.736 61.7897 14.94 61.4657 15.348C61.1417 15.756 60.9797 16.302 60.9797 16.986V16.968L60.9617 18.156C60.9617 19.008 60.9857 19.956 61.0337 21H56.7317C56.8277 19.272 56.8757 17.64 56.8757 16.104C56.8757 14.568 56.8277 12.924 56.7317 11.172C57.5237 11.208 58.1297 11.226 58.5497 11.226C58.9937 11.226 59.5997 11.208 60.3677 11.172L60.9077 13.836ZM69.5324 10.11C68.7764 10.11 68.2124 9.924 67.8404 9.552C67.4804 9.18 67.3004 8.694 67.3004 8.094C67.3004 7.506 67.4804 7.02 67.8404 6.636C68.2124 6.252 68.7764 6.06 69.5324 6.06C70.2524 6.06 70.8044 6.258 71.1884 6.654C71.5724 7.038 71.7644 7.518 71.7644 8.094C71.7644 8.694 71.5784 9.18 71.2064 9.552C70.8344 9.924 70.2764 10.11 69.5324 10.11ZM67.4444 21C67.5284 19.068 67.5704 17.472 67.5704 16.212C67.5704 14.712 67.5224 13.032 67.4264 11.172H71.7464C71.6504 12.96 71.6024 14.64 71.6024 16.212C71.6024 17.532 71.6444 19.128 71.7284 21H67.4444ZM80.3982 21C80.4702 19.236 80.5062 17.61 80.5062 16.122C80.5062 15.594 80.3742 15.174 80.1102 14.862C79.8582 14.55 79.5342 14.394 79.1382 14.394C78.7422 14.394 78.4062 14.574 78.1302 14.934C77.8542 15.282 77.6922 15.762 77.6442 16.374C77.6202 17.286 77.6082 17.934 77.6082 18.318C77.6082 19.134 77.6322 20.028 77.6802 21H73.3782C73.4742 19.272 73.5222 17.64 73.5222 16.104C73.5222 14.568 73.4742 12.924 73.3782 11.172C74.1702 11.208 74.7762 11.226 75.1962 11.226C75.6402 11.226 76.2462 11.208 77.0142 11.172L77.5362 13.818C77.8122 12.858 78.2442 12.15 78.8322 11.694C79.4202 11.226 80.1042 10.992 80.8842 10.992C81.6042 10.992 82.2282 11.154 82.7562 11.478C83.2842 11.79 83.6802 12.216 83.9442 12.756C84.2202 13.296 84.3582 13.902 84.3582 14.574V17.166C84.3582 18.762 84.3882 20.04 84.4482 21H80.3982ZM97.4318 18.012C97.4318 18.42 97.4798 18.708 97.5758 18.876C97.6718 19.044 97.8638 19.164 98.1518 19.236L98.0798 20.928C97.6958 20.988 97.3598 21.03 97.0718 21.054C96.7958 21.078 96.4238 21.09 95.9558 21.09C94.9238 21.09 94.2398 20.862 93.9038 20.406C93.5678 19.938 93.3998 19.344 93.3998 18.624V18.174C93.0518 19.158 92.5418 19.89 91.8698 20.37C91.2098 20.85 90.3638 21.09 89.3318 21.09C88.1318 21.09 87.2258 20.85 86.6138 20.37C86.0138 19.89 85.7138 19.176 85.7138 18.228C85.7138 17.448 85.9718 16.836 86.4878 16.392C87.0038 15.948 87.8018 15.642 88.8818 15.474C87.9698 14.826 87.0578 14.262 86.1458 13.782C86.8658 12.87 87.6878 12.18 88.6118 11.712C89.5358 11.232 90.6578 10.992 91.9778 10.992C93.8258 10.992 95.1938 11.394 96.0818 12.198C96.9818 12.99 97.4318 14.214 97.4318 15.87V18.012ZM92.3558 14.16C91.7438 14.16 91.2038 14.262 90.7358 14.466C90.2678 14.67 89.8478 14.976 89.4758 15.384C90.1958 15.3 91.0958 15.258 92.1758 15.258C92.6198 15.258 92.9318 15.204 93.1118 15.096C93.2918 14.988 93.3818 14.85 93.3818 14.682C93.3818 14.538 93.2918 14.418 93.1118 14.322C92.9318 14.214 92.6798 14.16 92.3558 14.16ZM90.4658 18.156C91.1378 18.156 91.7438 18.03 92.2838 17.778C92.8238 17.514 93.1958 17.172 93.3998 16.752V16.284C93.1118 16.428 92.7938 16.542 92.4458 16.626C92.0978 16.698 91.6778 16.77 91.1858 16.842L90.5378 16.95C89.8658 17.082 89.5298 17.31 89.5298 17.634C89.5298 17.982 89.8418 18.156 90.4658 18.156Z" fill="#F7F7F7"/>
<path d="M40.55 7.932L42.5386 7.71835L42.3466 5.932H40.55V7.932ZM41.954 21V23H44.1804L43.9426 20.7864L41.954 21ZM37.292 21L35.293 21.0617L35.3528 23H37.292V21ZM37.004 11.676L39.003 11.6143L35.0403 11.2969L37.004 11.676ZM35.204 21V23H36.8548L37.1677 21.3791L35.204 21ZM30.488 21L28.5263 21.3893L28.8459 23H30.488V21ZM28.652 11.748L30.6137 11.3587L26.6529 11.6897L28.652 11.748ZM28.382 21V23H30.3245L30.3811 21.0583L28.382 21ZM23.72 21L21.7314 20.7864L21.4936 23H23.72V21ZM25.124 7.932V5.932H23.3274L23.1354 7.71835L25.124 7.932ZM31.244 7.932L33.211 7.5702L32.9097 5.932H31.244V7.932ZM32.81 16.446L30.843 16.8078L34.7847 16.7633L32.81 16.446ZM34.178 7.932V5.932H32.4737L32.2033 7.61472L34.178 7.932ZM38.5614 8.14565L39.9654 21.2136L43.9426 20.7864L42.5386 7.71835L38.5614 8.14565ZM41.954 19H37.292V23H41.954V19ZM39.291 20.9383L39.003 11.6143L35.005 11.7377L35.293 21.0617L39.291 20.9383ZM35.0403 11.2969L33.2403 20.6209L37.1677 21.3791L38.9677 12.0551L35.0403 11.2969ZM35.204 19H30.488V23H35.204V19ZM32.4497 20.6107L30.6137 11.3587L26.6903 12.1373L28.5263 21.3893L32.4497 20.6107ZM26.6529 11.6897L26.3829 20.9417L30.3811 21.0583L30.6511 11.8063L26.6529 11.6897ZM28.382 19H23.72V23H28.382V19ZM25.7086 21.2136L27.1126 8.14565L23.1354 7.71835L21.7314 20.7864L25.7086 21.2136ZM25.124 9.932H31.244V5.932H25.124V9.932ZM29.277 8.2938L30.843 16.8078L34.777 16.0842L33.211 7.5702L29.277 8.2938ZM34.7847 16.7633L36.1527 8.24928L32.2033 7.61472L30.8353 16.1287L34.7847 16.7633ZM34.178 9.932H40.55V5.932H34.178V9.932ZM55.0719 18.876L53.3354 19.8683L53.3354 19.8683L55.0719 18.876ZM55.6479 19.236L57.6461 19.321L57.7155 17.6913L56.133 17.2957L55.6479 19.236ZM55.5759 20.928L55.8847 22.904L57.5044 22.6509L57.5741 21.013L55.5759 20.928ZM54.5679 21.054L54.4018 19.0609L54.3947 19.0615L54.5679 21.054ZM51.3999 20.406L49.7753 21.5724L49.7825 21.5825L49.7898 21.5924L51.3999 20.406ZM50.8959 18.174H52.8959L49.0104 17.5072L50.8959 18.174ZM49.3659 20.37L48.2034 18.7425L48.1965 18.7475L48.1896 18.7525L49.3659 20.37ZM44.1099 20.37L42.8605 21.9317L42.8681 21.9378L42.8756 21.9437L44.1099 20.37ZM43.9839 16.392L45.2884 17.908L43.9839 16.392ZM46.3779 15.474L46.6853 17.4502L51.5478 16.6939L47.5363 13.8436L46.3779 15.474ZM43.6419 13.782L42.0722 12.5427L40.5812 14.4312L42.7104 15.5518L43.6419 13.782ZM46.1079 11.712L47.0116 13.4962L47.0208 13.4915L47.0299 13.4868L46.1079 11.712ZM53.5779 12.198L52.2356 13.6806L52.2461 13.6901L52.2567 13.6994L53.5779 12.198ZM48.2319 14.466L49.0311 16.2994L49.0311 16.2994L48.2319 14.466ZM46.9719 15.384L45.494 14.0365L41.8888 17.9906L47.2037 17.3705L46.9719 15.384ZM50.6079 15.096L49.5789 13.381L49.5789 13.381L50.6079 15.096ZM50.6079 14.322L49.5789 16.037L49.6222 16.063L49.6667 16.0867L50.6079 14.322ZM49.7799 17.778L50.6257 19.5904L50.6421 19.5827L50.6583 19.5748L49.7799 17.778ZM50.8959 16.752L52.6949 17.6258L52.8959 17.212V16.752H50.8959ZM50.8959 16.284H52.8959V13.0479L50.0015 14.4951L50.8959 16.284ZM49.9419 16.626L50.3471 18.5845L50.3793 18.5779L50.4112 18.5702L49.9419 16.626ZM48.6819 16.842L48.3923 14.8631L48.3727 14.866L48.3531 14.8692L48.6819 16.842ZM48.0339 16.95L47.7051 14.9772L47.6767 14.9819L47.6484 14.9875L48.0339 16.95ZM52.9279 18.012C52.9279 18.4616 52.9606 19.2124 53.3354 19.8683L56.8084 17.8837C56.8692 17.9902 56.9008 18.0769 56.9161 18.1252C56.9317 18.1747 56.9365 18.204 56.9367 18.2052C56.9371 18.2073 56.9346 18.1927 56.9322 18.1579C56.9298 18.1236 56.9279 18.0756 56.9279 18.012H52.9279ZM53.3354 19.8683C53.8172 20.7115 54.6245 21.0417 55.1628 21.1763L56.133 17.2957C56.1361 17.2965 56.1575 17.302 56.1927 17.316C56.2278 17.3301 56.2822 17.3549 56.3479 17.396C56.4843 17.4812 56.6666 17.6356 56.8084 17.8837L53.3354 19.8683ZM53.6497 19.151L53.5777 20.843L57.5741 21.013L57.6461 19.321L53.6497 19.151ZM55.2672 18.952C54.9155 19.0069 54.6291 19.042 54.4018 19.0609L54.734 23.0471C55.0828 23.018 55.4683 22.9691 55.8847 22.904L55.2672 18.952ZM54.3947 19.0615C54.2021 19.0783 53.8956 19.09 53.4519 19.09V23.09C53.9443 23.09 54.3818 23.0777 54.7412 23.0465L54.3947 19.0615ZM53.4519 19.09C53.0662 19.09 52.8682 19.0453 52.7974 19.0216C52.7398 19.0024 52.8739 19.0349 53.01 19.2196L49.7898 21.5924C50.7235 22.8595 52.2825 23.09 53.4519 23.09V19.09ZM53.0246 19.2396C52.9877 19.1883 52.8959 19.0311 52.8959 18.624H48.8959C48.8959 19.6569 49.1401 20.6877 49.7753 21.5724L53.0246 19.2396ZM52.8959 18.624V18.174H48.8959V18.624H52.8959ZM49.0104 17.5072C48.7629 18.2068 48.4629 18.5572 48.2034 18.7425L50.5284 21.9975C51.6129 21.2228 52.3329 20.1092 52.7815 18.8408L49.0104 17.5072ZM48.1896 18.7525C47.9525 18.925 47.5499 19.09 46.8279 19.09V23.09C48.1699 23.09 49.4594 22.775 50.5423 21.9875L48.1896 18.7525ZM46.8279 19.09C45.8459 19.09 45.4582 18.8857 45.3442 18.7963L42.8756 21.9437C43.9856 22.8143 45.41 23.09 46.8279 23.09V19.09ZM45.3593 18.8083C45.3222 18.7786 45.3005 18.7515 45.2788 18.6998C45.2522 18.6364 45.2099 18.4939 45.2099 18.228H41.2099C41.2099 19.6272 41.6761 20.9842 42.8605 21.9317L45.3593 18.8083ZM45.2099 18.228C45.2099 18.059 45.2375 17.982 45.2464 17.9609C45.2523 17.9468 45.2585 17.9337 45.2884 17.908L42.6794 14.876C41.6549 15.7575 41.2099 16.96 41.2099 18.228H45.2099ZM45.2884 17.908C45.3985 17.8133 45.7716 17.5924 46.6853 17.4502L46.0705 13.4978C44.8242 13.6916 43.6014 14.0827 42.6794 14.876L45.2884 17.908ZM47.5363 13.8436C46.558 13.1485 45.5704 12.5369 44.5734 12.0122L42.7104 15.5518C43.5374 15.9871 44.3739 16.5035 45.2195 17.1044L47.5363 13.8436ZM45.2117 15.0213C45.7738 14.3092 46.3765 13.8179 47.0116 13.4962L45.2042 9.9278C43.9914 10.5421 42.95 11.4308 42.0722 12.5427L45.2117 15.0213ZM47.0299 13.4868C47.603 13.1891 48.3911 12.992 49.4739 12.992V8.992C47.9168 8.992 46.4608 9.27492 45.1859 9.93719L47.0299 13.4868ZM49.4739 12.992C51.0851 12.992 51.8706 13.3501 52.2356 13.6806L54.9203 10.7154C53.5093 9.43789 51.5588 8.992 49.4739 8.992V12.992ZM52.2567 13.6994C52.5793 13.9833 52.9279 14.5606 52.9279 15.87H56.9279C56.9279 13.8674 56.3766 11.9967 54.8992 10.6966L52.2567 13.6994ZM52.9279 15.87V18.012H56.9279V15.87H52.9279ZM49.8519 12.16C49.0186 12.16 48.1978 12.2991 47.4328 12.6326L49.0311 16.2994C49.2021 16.2249 49.4613 16.16 49.8519 16.16V12.16ZM47.4328 12.6326C46.6864 12.958 46.0399 13.4378 45.494 14.0365L48.4498 16.7315C48.6479 16.5142 48.8415 16.382 49.0311 16.2994L47.4328 12.6326ZM47.2037 17.3705C47.8194 17.2987 48.6358 17.258 49.6719 17.258V13.258C48.548 13.258 47.5644 13.3013 46.7402 13.3975L47.2037 17.3705ZM49.6719 17.258C50.1566 17.258 50.9538 17.2209 51.6369 16.811L49.5789 13.381C49.6866 13.3164 49.7746 13.283 49.8227 13.2672C49.8482 13.2588 49.8675 13.2537 49.8794 13.2508C49.8855 13.2493 49.8901 13.2483 49.8931 13.2477C49.8961 13.2471 49.8977 13.2468 49.8978 13.2468C49.8979 13.2468 49.893 13.2476 49.8826 13.2489C49.8722 13.2501 49.8573 13.2516 49.8377 13.253C49.7978 13.2558 49.7432 13.258 49.6719 13.258V17.258ZM51.6369 16.811C52.2455 16.4458 52.8779 15.7339 52.8779 14.682H48.8779C48.8779 14.3861 48.9639 14.0817 49.1352 13.819C49.2946 13.5745 49.4782 13.4415 49.5789 13.381L51.6369 16.811ZM52.8779 14.682C52.8779 13.5069 52.0742 12.8373 51.5491 12.5573L49.6667 16.0867C49.5863 16.0438 49.3924 15.9266 49.2104 15.684C49.0074 15.4133 48.8779 15.0617 48.8779 14.682H52.8779ZM51.6369 12.607C51.0209 12.2374 50.3575 12.16 49.8519 12.16V16.16C49.9073 16.16 49.9064 16.165 49.8649 16.1561C49.8229 16.1471 49.715 16.1186 49.5789 16.037L51.6369 12.607ZM47.9619 20.156C48.8887 20.156 49.7889 19.9809 50.6257 19.5904L48.9342 15.9656C48.6909 16.0791 48.3791 16.156 47.9619 16.156V20.156ZM50.6583 19.5748C51.4832 19.1715 52.2458 18.5505 52.6949 17.6258L49.0969 15.8782C49.1132 15.8446 49.1269 15.8359 49.1103 15.8512C49.0901 15.8697 49.0301 15.9184 48.9015 15.9812L50.6583 19.5748ZM52.8959 16.752V16.284H48.8959V16.752H52.8959ZM50.0015 14.4951C49.863 14.5644 49.6897 14.6295 49.4726 14.6818L50.4112 18.5702C50.8902 18.4545 51.3529 18.2916 51.7904 18.0729L50.0015 14.4951ZM49.5367 14.6675C49.2387 14.7291 48.8596 14.7947 48.3923 14.8631L48.9715 18.8209C49.4883 18.7453 49.9491 18.6669 50.3471 18.5845L49.5367 14.6675ZM48.3531 14.8692L47.7051 14.9772L48.3627 18.9228L49.0107 18.8148L48.3531 14.8692ZM47.6484 14.9875C47.2051 15.0746 46.6478 15.2306 46.1549 15.565C45.5952 15.9449 45.0259 16.6397 45.0259 17.634H49.0259C49.0259 17.9187 48.9466 18.2036 48.7973 18.4489C48.6574 18.6788 48.4949 18.8112 48.4009 18.875C48.2441 18.9814 48.1907 18.9574 48.4194 18.9125L47.6484 14.9875ZM45.0259 17.634C45.0259 18.0292 45.1178 18.4704 45.3677 18.8885C45.616 19.3039 45.9553 19.5879 46.2858 19.7722C46.8862 20.1071 47.5296 20.156 47.9619 20.156V16.156C47.7703 16.156 47.9456 16.1179 48.2341 16.2788C48.4085 16.3761 48.6309 16.5514 48.8011 16.8363C48.973 17.1239 49.0259 17.4128 49.0259 17.634H45.0259ZM60.9077 13.836L58.9476 14.2333L62.8346 14.3719L60.9077 13.836ZM65.6777 11.19L67.6576 11.4728L67.939 9.50318L65.9708 9.21159L65.6777 11.19ZM65.1017 15.222L64.3995 17.0947L66.7297 17.9685L67.0816 15.5048L65.1017 15.222ZM61.4657 15.348L59.8995 14.1042V14.1042L61.4657 15.348ZM60.9797 16.968H62.9797L58.9799 16.9377L60.9797 16.968ZM60.9617 18.156L58.9619 18.1257L58.9617 18.1408V18.156H60.9617ZM61.0337 21V23H63.1278L63.0316 20.9081L61.0337 21ZM56.7317 21L54.7348 20.8891L54.6175 23H56.7317V21ZM56.7317 11.172L56.8225 9.17406L54.6137 9.07366L54.7347 11.2814L56.7317 11.172ZM60.3677 11.172L62.3279 10.7747L61.9872 9.09389L60.2741 9.17419L60.3677 11.172ZM62.8346 14.3719C62.9921 13.8056 63.2124 13.5524 63.3975 13.4187C63.5952 13.2758 63.9642 13.118 64.6697 13.118V9.118C63.3712 9.118 62.1112 9.4132 61.055 10.1763C59.9861 10.9486 59.3273 12.0544 58.9809 13.3001L62.8346 14.3719ZM64.6697 13.118C64.9257 13.118 65.1635 13.1356 65.3846 13.1684L65.9708 9.21159C65.544 9.14836 65.1098 9.118 64.6697 9.118V13.118ZM63.6978 10.9072L63.1218 14.9392L67.0816 15.5048L67.6576 11.4728L63.6978 10.9072ZM65.804 13.3493C64.8455 12.9899 63.8775 12.736 62.9777 12.736V16.736C63.182 16.736 63.6299 16.8061 64.3995 17.0947L65.804 13.3493ZM62.9777 12.736C61.8897 12.736 60.7148 13.0775 59.8995 14.1042L63.0319 16.5918C63.005 16.6257 62.9707 16.6594 62.9313 16.6886C62.8922 16.7175 62.8582 16.7343 62.8371 16.7429C62.7979 16.7588 62.829 16.736 62.9777 16.736V12.736ZM59.8995 14.1042C59.2174 14.9631 58.9797 15.9924 58.9797 16.986H62.9797C62.9797 16.6116 63.066 16.5489 63.0319 16.5918L59.8995 14.1042ZM62.9797 16.986V16.968H58.9797V16.986H62.9797ZM58.9799 16.9377L58.9619 18.1257L62.9615 18.1863L62.9795 16.9983L58.9799 16.9377ZM58.9617 18.156C58.9617 19.0446 58.9867 20.0238 59.0358 21.0919L63.0316 20.9081C62.9847 19.8882 62.9617 18.9714 62.9617 18.156H58.9617ZM61.0337 19H56.7317V23H61.0337V19ZM58.7286 21.1109C58.8264 19.3505 58.8757 17.6813 58.8757 16.104H54.8757C54.8757 17.5987 54.829 19.1935 54.7348 20.8891L58.7286 21.1109ZM58.8757 16.104C58.8757 14.5268 58.8264 12.846 58.7287 11.0626L54.7347 11.2814C54.829 13.002 54.8757 14.6092 54.8757 16.104H58.8757ZM56.6409 13.1699C57.4417 13.2063 58.0837 13.226 58.5497 13.226V9.226C58.1758 9.226 57.6057 9.20966 56.8225 9.17406L56.6409 13.1699ZM58.5497 13.226C59.0394 13.226 59.6811 13.2064 60.4614 13.1698L60.2741 9.17419C59.5183 9.20962 58.948 9.226 58.5497 9.226V13.226ZM58.4076 11.5693L58.9476 14.2333L62.8679 13.4387L62.3279 10.7747L58.4076 11.5693ZM67.8404 9.552L66.4032 10.9428L66.4146 10.9546L66.4262 10.9662L67.8404 9.552ZM67.8404 6.636L66.4039 5.24441L66.3925 5.25617L66.3813 5.26812L67.8404 6.636ZM71.1884 6.654L69.7526 8.04629L69.7633 8.05733L69.7742 8.06821L71.1884 6.654ZM71.2064 9.552L72.6206 10.9662L71.2064 9.552ZM67.4444 21L65.4463 20.9131L65.3555 23H67.4444V21ZM67.4264 11.172V9.172H65.3205L65.4291 11.2751L67.4264 11.172ZM71.7464 11.172L73.7435 11.2792L73.8567 9.172H71.7464V11.172ZM71.7284 21V23H73.8201L73.7264 20.9103L71.7284 21ZM69.5324 8.11C69.312 8.11 69.2022 8.08213 69.1688 8.07112C69.1451 8.06332 69.1925 8.07566 69.2546 8.13779L66.4262 10.9662C67.3109 11.8509 68.4789 12.11 69.5324 12.11V8.11ZM69.2776 8.16116C69.2817 8.16542 69.2891 8.17404 69.2968 8.18631C69.3045 8.19858 69.309 8.20874 69.3109 8.21387C69.3151 8.22527 69.3004 8.19369 69.3004 8.094H65.3004C65.3004 9.12422 65.6248 10.1385 66.4032 10.9428L69.2776 8.16116ZM69.3004 8.094C69.3004 8.00552 69.3135 7.976 69.3109 7.98313C69.3099 7.98571 69.3074 7.99138 69.3034 7.99785C69.2994 8.00425 69.2971 8.00637 69.2995 8.00388L66.3813 5.26812C65.6321 6.06729 65.3004 7.06232 65.3004 8.094H69.3004ZM69.2769 8.02759C69.2507 8.05457 69.2245 8.07443 69.2036 8.08732C69.1834 8.09975 69.1754 8.10122 69.1869 8.0973C69.2142 8.08803 69.3175 8.06 69.5324 8.06V4.06C68.4627 4.06 67.2861 4.33373 66.4039 5.24441L69.2769 8.02759ZM69.5324 8.06C69.7128 8.06 69.7948 8.08518 69.8111 8.09105C69.8183 8.09362 69.8118 8.09202 69.7972 8.08278C69.7823 8.0733 69.7665 8.06059 69.7526 8.04629L72.6242 5.26171C71.7582 4.36861 70.6207 4.06 69.5324 4.06V8.06ZM69.7742 8.06821C69.7813 8.07535 69.7806 8.07589 69.7763 8.0694C69.7743 8.0664 69.7719 8.06254 69.7696 8.05799C69.7672 8.05344 69.7651 8.04894 69.7634 8.04478C69.7599 8.03584 69.7597 8.03249 69.7607 8.03777C69.7617 8.04347 69.7644 8.0613 69.7644 8.094H73.7644C73.7644 7.02328 73.3862 6.02338 72.6026 5.23979L69.7742 8.06821ZM69.7644 8.094C69.7644 8.14076 69.7608 8.17014 69.7582 8.185C69.7557 8.19943 69.7542 8.20111 69.757 8.19363C69.76 8.1858 69.7656 8.17406 69.7739 8.16124C69.7822 8.14847 69.7894 8.14053 69.7922 8.13779L72.6206 10.9662C73.4213 10.1655 73.7644 9.14341 73.7644 8.094H69.7644ZM69.7922 8.13779C69.8505 8.07946 69.896 8.0666 69.8764 8.07313C69.8472 8.08289 69.7437 8.11 69.5324 8.11V12.11C70.5847 12.11 71.7412 11.8456 72.6206 10.9662L69.7922 8.13779ZM69.4425 21.0869C69.5272 19.1394 69.5704 17.5119 69.5704 16.212H65.5704C65.5704 17.4321 65.5296 18.9966 65.4463 20.9131L69.4425 21.0869ZM69.5704 16.212C69.5704 14.6706 69.5211 12.9554 69.4237 11.0689L65.4291 11.2751C65.5237 13.1086 65.5704 14.7534 65.5704 16.212H69.5704ZM67.4264 13.172H71.7464V9.172H67.4264V13.172ZM69.7493 11.0648C69.6516 12.8837 69.6024 14.5997 69.6024 16.212H73.6024C73.6024 14.6803 73.6492 13.0363 73.7435 11.2792L69.7493 11.0648ZM69.6024 16.212C69.6024 17.5714 69.6456 19.199 69.7304 21.0897L73.7264 20.9103C73.6432 19.057 73.6024 17.4926 73.6024 16.212H69.6024ZM71.7284 19H67.4444V23H71.7284V19ZM80.3982 21L78.3999 20.9184L78.3149 23H80.3982V21ZM80.1102 14.862L78.5543 16.1187L78.5687 16.1364L78.5834 16.1539L80.1102 14.862ZM78.1302 14.934L79.6972 16.1768L79.7074 16.1639L79.7174 16.1509L78.1302 14.934ZM77.6442 16.374L75.6503 16.2176L75.6463 16.2694L75.6449 16.3214L77.6442 16.374ZM77.6802 21V23H79.7814L79.6778 20.9014L77.6802 21ZM73.3782 21L71.3813 20.8891L71.264 23H73.3782V21ZM73.3782 11.172L73.469 9.17406L71.2602 9.07366L71.3812 11.2814L73.3782 11.172ZM77.0142 11.172L78.9764 10.7849L78.6427 9.09347L76.9206 9.17419L77.0142 11.172ZM77.5362 13.818L75.574 14.2051L79.4583 14.3706L77.5362 13.818ZM78.8322 11.694L80.0578 13.2744L80.0678 13.2667L80.0777 13.2588L78.8322 11.694ZM82.7562 11.478L81.7102 13.1826L81.7244 13.1914L81.7387 13.1999L82.7562 11.478ZM83.9442 12.756L82.1474 13.6344L82.1552 13.6504L82.1633 13.6662L83.9442 12.756ZM84.4482 21V23H86.5771L86.4443 20.8752L84.4482 21ZM82.3965 21.0816C82.4695 19.2952 82.5062 17.6416 82.5062 16.122H78.5062C78.5062 17.5784 78.471 19.1768 78.3999 20.9184L82.3965 21.0816ZM82.5062 16.122C82.5062 15.2617 82.2866 14.3378 81.637 13.5701L78.5834 16.1539C78.5589 16.1249 78.5392 16.0953 78.5244 16.0679C78.5097 16.0408 78.5023 16.0205 78.4992 16.0107C78.4935 15.9924 78.5062 16.0222 78.5062 16.122H82.5062ZM81.6661 13.6053C81.04 12.8302 80.1474 12.394 79.1382 12.394V16.394C79.0666 16.394 78.9457 16.3781 78.8106 16.313C78.6762 16.2483 78.5929 16.1664 78.5543 16.1187L81.6661 13.6053ZM79.1382 12.394C78.024 12.394 77.1349 12.9451 76.543 13.7171L79.7174 16.1509C79.7148 16.1542 79.6593 16.2246 79.5336 16.292C79.3997 16.3637 79.2565 16.394 79.1382 16.394V12.394ZM76.5632 13.6912C75.9622 14.4491 75.7179 15.3558 75.6503 16.2176L79.6381 16.5304C79.6665 16.1682 79.7463 16.1149 79.6972 16.1768L76.5632 13.6912ZM75.6449 16.3214C75.6209 17.2337 75.6082 17.9051 75.6082 18.318H79.6082C79.6082 17.9629 79.6195 17.3383 79.6435 16.4266L75.6449 16.3214ZM75.6082 18.318C75.6082 19.1724 75.6333 20.0998 75.6826 21.0986L79.6778 20.9014C79.6311 19.9562 79.6082 19.0956 79.6082 18.318H75.6082ZM77.6802 19H73.3782V23H77.6802V19ZM75.3751 21.1109C75.4729 19.3505 75.5222 17.6813 75.5222 16.104H71.5222C71.5222 17.5987 71.4755 19.1935 71.3813 20.8891L75.3751 21.1109ZM75.5222 16.104C75.5222 14.5268 75.4729 12.846 75.3752 11.0626L71.3812 11.2814C71.4755 13.002 71.5222 14.6092 71.5222 16.104H75.5222ZM73.2874 13.1699C74.0882 13.2063 74.7302 13.226 75.1962 13.226V9.226C74.8222 9.226 74.2522 9.20966 73.469 9.17406L73.2874 13.1699ZM75.1962 13.226C75.6859 13.226 76.3276 13.2064 77.1078 13.1698L76.9206 9.17419C76.1648 9.20962 75.5945 9.226 75.1962 9.226V13.226ZM75.052 11.5591L75.574 14.2051L79.4984 13.4309L78.9764 10.7849L75.052 11.5591ZM79.4583 14.3706C79.6567 13.6805 79.9031 13.3944 80.0578 13.2744L77.6066 10.1136C76.5853 10.9056 75.9677 12.0355 75.6141 13.2654L79.4583 14.3706ZM80.0777 13.2588C80.2975 13.0839 80.5381 12.992 80.8842 12.992V8.992C79.6703 8.992 78.5429 9.36807 77.5867 10.1292L80.0777 13.2588ZM80.8842 12.992C81.2958 12.992 81.5451 13.0813 81.7102 13.1826L83.8022 9.77335C82.9114 9.22668 81.9126 8.992 80.8842 8.992V12.992ZM81.7387 13.1999C81.9374 13.3172 82.0588 13.4532 82.1474 13.6344L85.741 11.8776C85.3016 10.9788 84.631 10.2628 83.7737 9.75615L81.7387 13.1999ZM82.1633 13.6662C82.2803 13.8951 82.3582 14.1837 82.3582 14.574H86.3582C86.3582 13.6203 86.1601 12.6969 85.7251 11.8458L82.1633 13.6662ZM82.3582 14.574V17.166H86.3582V14.574H82.3582ZM82.3582 17.166C82.3582 18.7804 82.3884 20.1052 82.4521 21.1248L86.4443 20.8752C86.388 19.9748 86.3582 18.7436 86.3582 17.166H82.3582ZM84.4482 19H80.3982V23H84.4482V19ZM97.5758 18.876L95.8393 19.8683V19.8683L97.5758 18.876ZM98.1518 19.236L100.15 19.321L100.219 17.6913L98.6369 17.2957L98.1518 19.236ZM98.0798 20.928L98.3886 22.904L100.008 22.6509L100.078 21.013L98.0798 20.928ZM97.0718 21.054L96.9057 19.0609L96.8986 19.0615L97.0718 21.054ZM93.9038 20.406L92.2792 21.5724L92.2864 21.5825L92.2937 21.5924L93.9038 20.406ZM93.3998 18.174H95.3998L91.5143 17.5072L93.3998 18.174ZM91.8698 20.37L90.7074 18.7425L90.7004 18.7475L90.6935 18.7525L91.8698 20.37ZM86.6138 20.37L85.3644 21.9317L85.372 21.9378L85.3795 21.9437L86.6138 20.37ZM86.4878 16.392L87.7923 17.908L86.4878 16.392ZM88.8818 15.474L89.1892 17.4502L94.0517 16.6939L90.0402 13.8436L88.8818 15.474ZM86.1458 13.782L84.5761 12.5427L83.0851 14.4312L85.2143 15.5518L86.1458 13.782ZM88.6118 11.712L89.5155 13.4962L89.5247 13.4915L89.5338 13.4868L88.6118 11.712ZM96.0818 12.198L94.7395 13.6806L94.75 13.6901L94.7606 13.6994L96.0818 12.198ZM90.7358 14.466L91.535 16.2994L91.535 16.2994L90.7358 14.466ZM89.4758 15.384L87.9979 14.0365L84.3927 17.9906L89.7076 17.3705L89.4758 15.384ZM93.1118 15.096L92.0828 13.381L92.0828 13.381L93.1118 15.096ZM93.1118 14.322L92.0828 16.037L92.1261 16.063L92.1707 16.0867L93.1118 14.322ZM92.2838 17.778L93.1296 19.5904L93.146 19.5827L93.1622 19.5748L92.2838 17.778ZM93.3998 16.752L95.1988 17.6258L95.3998 17.212V16.752H93.3998ZM93.3998 16.284H95.3998V13.0479L92.5054 14.4951L93.3998 16.284ZM92.4458 16.626L92.851 18.5845L92.8832 18.5779L92.9151 18.5702L92.4458 16.626ZM91.1858 16.842L90.8962 14.8631L90.8766 14.866L90.857 14.8692L91.1858 16.842ZM90.5378 16.95L90.209 14.9772L90.1806 14.9819L90.1523 14.9875L90.5378 16.95ZM95.4318 18.012C95.4318 18.4616 95.4646 19.2124 95.8393 19.8683L99.3123 17.8837C99.3731 17.9902 99.4047 18.0769 99.42 18.1252C99.4356 18.1747 99.4404 18.204 99.4406 18.2052C99.441 18.2073 99.4385 18.1927 99.4361 18.1579C99.4337 18.1236 99.4318 18.0756 99.4318 18.012H95.4318ZM95.8393 19.8683C96.3212 20.7115 97.1284 21.0417 97.6668 21.1763L98.6369 17.2957C98.64 17.2965 98.6615 17.302 98.6966 17.316C98.7318 17.3301 98.7861 17.3549 98.8518 17.396C98.9882 17.4812 99.1705 17.6356 99.3123 17.8837L95.8393 19.8683ZM96.1536 19.151L96.0816 20.843L100.078 21.013L100.15 19.321L96.1536 19.151ZM97.7711 18.952C97.4194 19.0069 97.133 19.042 96.9057 19.0609L97.2379 23.0471C97.5867 23.018 97.9722 22.9691 98.3886 22.904L97.7711 18.952ZM96.8986 19.0615C96.706 19.0783 96.3995 19.09 95.9558 19.09V23.09C96.4482 23.09 96.8857 23.0777 97.2451 23.0465L96.8986 19.0615ZM95.9558 19.09C95.5702 19.09 95.3721 19.0453 95.3013 19.0216C95.2437 19.0024 95.3779 19.0349 95.5139 19.2196L92.2937 21.5924C93.2274 22.8595 94.7864 23.09 95.9558 23.09V19.09ZM95.5285 19.2396C95.4916 19.1883 95.3998 19.0311 95.3998 18.624H91.3998C91.3998 19.6569 91.644 20.6877 92.2792 21.5724L95.5285 19.2396ZM95.3998 18.624V18.174H91.3998V18.624H95.3998ZM91.5143 17.5072C91.2669 18.2068 90.9669 18.5572 90.7074 18.7425L93.0323 21.9975C94.1168 21.2228 94.8368 20.1092 95.2854 18.8408L91.5143 17.5072ZM90.6935 18.7525C90.4564 18.925 90.0538 19.09 89.3318 19.09V23.09C90.6738 23.09 91.9633 22.775 93.0462 21.9875L90.6935 18.7525ZM89.3318 19.09C88.3498 19.09 87.9621 18.8857 87.8481 18.7963L85.3795 21.9437C86.4895 22.8143 87.9139 23.09 89.3318 23.09V19.09ZM87.8632 18.8083C87.8261 18.7786 87.8044 18.7515 87.7827 18.6998C87.7561 18.6364 87.7138 18.4939 87.7138 18.228H83.7138C83.7138 19.6272 84.18 20.9842 85.3644 21.9317L87.8632 18.8083ZM87.7138 18.228C87.7138 18.059 87.7414 17.982 87.7503 17.9609C87.7562 17.9468 87.7624 17.9337 87.7923 17.908L85.1833 14.876C84.1588 15.7575 83.7138 16.96 83.7138 18.228H87.7138ZM87.7923 17.908C87.9024 17.8133 88.2755 17.5924 89.1892 17.4502L88.5744 13.4978C87.3281 13.6916 86.1053 14.0827 85.1833 14.876L87.7923 17.908ZM90.0402 13.8436C89.0619 13.1485 88.0743 12.5369 87.0773 12.0122L85.2143 15.5518C86.0413 15.9871 86.8778 16.5035 87.7234 17.1044L90.0402 13.8436ZM87.7156 15.0213C88.2778 14.3092 88.8804 13.8179 89.5155 13.4962L87.7081 9.9278C86.4953 10.5421 85.4539 11.4308 84.5761 12.5427L87.7156 15.0213ZM89.5338 13.4868C90.1069 13.1891 90.895 12.992 91.9778 12.992V8.992C90.4207 8.992 88.9647 9.27492 87.6898 9.93719L89.5338 13.4868ZM91.9778 12.992C93.589 12.992 94.3745 13.3501 94.7395 13.6806L97.4242 10.7154C96.0132 9.43789 94.0627 8.992 91.9778 8.992V12.992ZM94.7606 13.6994C95.0832 13.9833 95.4318 14.5606 95.4318 15.87H99.4318C99.4318 13.8674 98.8805 11.9967 97.4031 10.6966L94.7606 13.6994ZM95.4318 15.87V18.012H99.4318V15.87H95.4318ZM92.3558 12.16C91.5225 12.16 90.7017 12.2991 89.9367 12.6326L91.535 16.2994C91.706 16.2249 91.9652 16.16 92.3558 16.16V12.16ZM89.9367 12.6326C89.1903 12.958 88.5438 13.4378 87.9979 14.0365L90.9537 16.7315C91.1518 16.5142 91.3454 16.382 91.535 16.2994L89.9367 12.6326ZM89.7076 17.3705C90.3233 17.2987 91.1397 17.258 92.1758 17.258V13.258C91.0519 13.258 90.0684 13.3013 89.2441 13.3975L89.7076 17.3705ZM92.1758 17.258C92.6605 17.258 93.4577 17.2209 94.1408 16.811L92.0828 13.381C92.1905 13.3164 92.2785 13.283 92.3266 13.2672C92.3521 13.2588 92.3714 13.2537 92.3833 13.2508C92.3894 13.2493 92.394 13.2483 92.397 13.2477C92.4 13.2471 92.4016 13.2468 92.4017 13.2468C92.4018 13.2468 92.3969 13.2476 92.3865 13.2489C92.3761 13.2501 92.3612 13.2516 92.3416 13.253C92.3017 13.2558 92.2471 13.258 92.1758 13.258V17.258ZM94.1408 16.811C94.7494 16.4458 95.3818 15.7339 95.3818 14.682H91.3818C91.3818 14.3861 91.4678 14.0817 91.6391 13.819C91.7986 13.5745 91.9821 13.4415 92.0828 13.381L94.1408 16.811ZM95.3818 14.682C95.3818 13.5069 94.5781 12.8373 94.053 12.5573L92.1707 16.0867C92.0902 16.0438 91.8963 15.9266 91.7143 15.684C91.5113 15.4133 91.3818 15.0617 91.3818 14.682H95.3818ZM94.1408 12.607C93.5248 12.2374 92.8614 12.16 92.3558 12.16V16.16C92.4112 16.16 92.4103 16.165 92.3688 16.1561C92.3268 16.1471 92.2189 16.1186 92.0828 16.037L94.1408 12.607ZM90.4658 20.156C91.3926 20.156 92.2928 19.9809 93.1296 19.5904L91.4381 15.9656C91.1949 16.0791 90.883 16.156 90.4658 16.156V20.156ZM93.1622 19.5748C93.9871 19.1715 94.7497 18.5505 95.1988 17.6258L91.6008 15.8782C91.6171 15.8446 91.6308 15.8359 91.6142 15.8512C91.594 15.8697 91.534 15.9184 91.4054 15.9812L93.1622 19.5748ZM95.3998 16.752V16.284H91.3998V16.752H95.3998ZM92.5054 14.4951C92.3669 14.5644 92.1936 14.6295 91.9765 14.6818L92.9151 18.5702C93.3941 18.4545 93.8568 18.2916 94.2943 18.0729L92.5054 14.4951ZM92.0406 14.6675C91.7426 14.7291 91.3635 14.7947 90.8962 14.8631L91.4754 18.8209C91.9922 18.7453 92.453 18.6669 92.851 18.5845L92.0406 14.6675ZM90.857 14.8692L90.209 14.9772L90.8666 18.9228L91.5146 18.8148L90.857 14.8692ZM90.1523 14.9875C89.709 15.0746 89.1517 15.2306 88.6588 15.565C88.0991 15.9449 87.5298 16.6397 87.5298 17.634H91.5298C91.5298 17.9187 91.4505 18.2036 91.3012 18.4489C91.1613 18.6788 90.9988 18.8112 90.9048 18.875C90.748 18.9814 90.6946 18.9574 90.9233 18.9125L90.1523 14.9875ZM87.5298 17.634C87.5298 18.0292 87.6217 18.4704 87.8716 18.8885C88.1199 19.3039 88.4592 19.5879 88.7897 19.7722C89.3901 20.1071 90.0335 20.156 90.4658 20.156V16.156C90.2742 16.156 90.4495 16.1179 90.738 16.2788C90.9124 16.3761 91.1348 16.5514 91.3051 16.8363C91.4769 17.1239 91.5298 17.4128 91.5298 17.634H87.5298Z" fill="#4A5759" mask="url(#path-2-outside-1_8_9)"/>
<mask id="path-4-outside-2_8_9" maskUnits="userSpaceOnUse" x="21" y="20" width="46" height="23" fill="black">
<rect fill="white" x="21" y="20" width="46" height="23"/>
<path d="M28.112 32.364C31.592 32.34 34.472 32.28 36.752 32.184C36.596 32.796 36.5 33.384 36.464 33.948C36.428 34.512 36.41 35.196 36.41 36H23.72C23.816 33.672 23.864 31.494 23.864 29.466C23.864 27.438 23.816 25.26 23.72 22.932H28.112V32.364ZM49.7248 33.012C49.7248 33.42 49.7728 33.708 49.8688 33.876C49.9648 34.044 50.1568 34.164 50.4448 34.236L50.3728 35.928C49.9888 35.988 49.6528 36.03 49.3648 36.054C49.0888 36.078 48.7168 36.09 48.2488 36.09C47.2168 36.09 46.5328 35.862 46.1968 35.406C45.8608 34.938 45.6928 34.344 45.6928 33.624V33.174C45.3448 34.158 44.8348 34.89 44.1628 35.37C43.5028 35.85 42.6568 36.09 41.6248 36.09C40.4248 36.09 39.5188 35.85 38.9068 35.37C38.3068 34.89 38.0068 34.176 38.0068 33.228C38.0068 32.448 38.2648 31.836 38.7808 31.392C39.2968 30.948 40.0948 30.642 41.1748 30.474C40.2628 29.826 39.3508 29.262 38.4388 28.782C39.1588 27.87 39.9808 27.18 40.9048 26.712C41.8288 26.232 42.9508 25.992 44.2708 25.992C46.1188 25.992 47.4868 26.394 48.3748 27.198C49.2748 27.99 49.7248 29.214 49.7248 30.87V33.012ZM44.6488 29.16C44.0368 29.16 43.4968 29.262 43.0288 29.466C42.5608 29.67 42.1408 29.976 41.7688 30.384C42.4888 30.3 43.3888 30.258 44.4688 30.258C44.9128 30.258 45.2248 30.204 45.4048 30.096C45.5848 29.988 45.6748 29.85 45.6748 29.682C45.6748 29.538 45.5848 29.418 45.4048 29.322C45.2248 29.214 44.9728 29.16 44.6488 29.16ZM42.7588 33.156C43.4308 33.156 44.0368 33.03 44.5768 32.778C45.1168 32.514 45.4888 32.172 45.6928 31.752V31.284C45.4048 31.428 45.0868 31.542 44.7388 31.626C44.3908 31.698 43.9708 31.77 43.4788 31.842L42.8308 31.95C42.1588 32.082 41.8228 32.31 41.8228 32.634C41.8228 32.982 42.1348 33.156 42.7588 33.156ZM63.3726 26.172L62.9586 27.216C61.8186 30.252 60.6246 33.18 59.3766 36C58.7286 37.44 57.7926 38.592 56.5686 39.456C55.3446 40.332 53.8086 40.752 51.9606 40.716C51.7326 39.72 51.5406 38.94 51.3846 38.376C51.2406 37.824 51.0486 37.266 50.8086 36.702C51.4686 36.858 52.0866 36.936 52.6626 36.936C53.5986 36.936 54.3426 36.738 54.8946 36.342C54.4626 35.058 53.9526 33.678 53.3646 32.202C52.7766 30.726 51.9246 28.716 50.8086 26.172H55.0746C55.2186 26.772 55.4166 27.468 55.6686 28.26C55.9206 29.052 56.1726 29.814 56.4246 30.546C56.4966 30.774 56.6106 31.122 56.7666 31.59C56.9346 32.046 57.0666 32.43 57.1626 32.742L57.6306 31.32C58.5306 28.716 59.0646 27 59.2326 26.172H63.3726Z"/>
</mask>
<path d="M28.112 32.364C31.592 32.34 34.472 32.28 36.752 32.184C36.596 32.796 36.5 33.384 36.464 33.948C36.428 34.512 36.41 35.196 36.41 36H23.72C23.816 33.672 23.864 31.494 23.864 29.466C23.864 27.438 23.816 25.26 23.72 22.932H28.112V32.364ZM49.7248 33.012C49.7248 33.42 49.7728 33.708 49.8688 33.876C49.9648 34.044 50.1568 34.164 50.4448 34.236L50.3728 35.928C49.9888 35.988 49.6528 36.03 49.3648 36.054C49.0888 36.078 48.7168 36.09 48.2488 36.09C47.2168 36.09 46.5328 35.862 46.1968 35.406C45.8608 34.938 45.6928 34.344 45.6928 33.624V33.174C45.3448 34.158 44.8348 34.89 44.1628 35.37C43.5028 35.85 42.6568 36.09 41.6248 36.09C40.4248 36.09 39.5188 35.85 38.9068 35.37C38.3068 34.89 38.0068 34.176 38.0068 33.228C38.0068 32.448 38.2648 31.836 38.7808 31.392C39.2968 30.948 40.0948 30.642 41.1748 30.474C40.2628 29.826 39.3508 29.262 38.4388 28.782C39.1588 27.87 39.9808 27.18 40.9048 26.712C41.8288 26.232 42.9508 25.992 44.2708 25.992C46.1188 25.992 47.4868 26.394 48.3748 27.198C49.2748 27.99 49.7248 29.214 49.7248 30.87V33.012ZM44.6488 29.16C44.0368 29.16 43.4968 29.262 43.0288 29.466C42.5608 29.67 42.1408 29.976 41.7688 30.384C42.4888 30.3 43.3888 30.258 44.4688 30.258C44.9128 30.258 45.2248 30.204 45.4048 30.096C45.5848 29.988 45.6748 29.85 45.6748 29.682C45.6748 29.538 45.5848 29.418 45.4048 29.322C45.2248 29.214 44.9728 29.16 44.6488 29.16ZM42.7588 33.156C43.4308 33.156 44.0368 33.03 44.5768 32.778C45.1168 32.514 45.4888 32.172 45.6928 31.752V31.284C45.4048 31.428 45.0868 31.542 44.7388 31.626C44.3908 31.698 43.9708 31.77 43.4788 31.842L42.8308 31.95C42.1588 32.082 41.8228 32.31 41.8228 32.634C41.8228 32.982 42.1348 33.156 42.7588 33.156ZM63.3726 26.172L62.9586 27.216C61.8186 30.252 60.6246 33.18 59.3766 36C58.7286 37.44 57.7926 38.592 56.5686 39.456C55.3446 40.332 53.8086 40.752 51.9606 40.716C51.7326 39.72 51.5406 38.94 51.3846 38.376C51.2406 37.824 51.0486 37.266 50.8086 36.702C51.4686 36.858 52.0866 36.936 52.6626 36.936C53.5986 36.936 54.3426 36.738 54.8946 36.342C54.4626 35.058 53.9526 33.678 53.3646 32.202C52.7766 30.726 51.9246 28.716 50.8086 26.172H55.0746C55.2186 26.772 55.4166 27.468 55.6686 28.26C55.9206 29.052 56.1726 29.814 56.4246 30.546C56.4966 30.774 56.6106 31.122 56.7666 31.59C56.9346 32.046 57.0666 32.43 57.1626 32.742L57.6306 31.32C58.5306 28.716 59.0646 27 59.2326 26.172H63.3726Z" fill="#F7F7F7"/>
<path d="M28.112 32.364H26.112V34.3778L28.1258 34.364L28.112 32.364ZM36.752 32.184L38.69 32.678L39.3541 30.0727L36.6679 30.1858L36.752 32.184ZM36.464 33.948L34.4681 33.8206V33.8206L36.464 33.948ZM36.41 36V38H38.41V36H36.41ZM23.72 36L21.7217 35.9176L21.6358 38H23.72V36ZM23.72 22.932V20.932H21.6358L21.7217 23.0144L23.72 22.932ZM28.112 22.932H30.112V20.932H28.112V22.932ZM28.1258 34.364C31.6185 34.3399 34.524 34.2796 36.8361 34.1822L36.6679 30.1858C34.42 30.2804 31.5655 30.3401 28.0982 30.364L28.1258 34.364ZM34.814 31.69C34.6309 32.4083 34.5128 33.1194 34.4681 33.8206L38.4599 34.0754C38.4872 33.6486 38.5611 33.1837 38.69 32.678L34.814 31.69ZM34.4681 33.8206C34.4285 34.4405 34.41 35.1696 34.41 36H38.41C38.41 35.2224 38.4275 34.5835 38.4599 34.0754L34.4681 33.8206ZM36.41 34H23.72V38H36.41V34ZM25.7183 36.0824C25.8153 33.7309 25.864 31.5252 25.864 29.466H21.864C21.864 31.4628 21.8167 33.6131 21.7217 35.9176L25.7183 36.0824ZM25.864 29.466C25.864 27.4068 25.8153 25.2011 25.7183 22.8496L21.7217 23.0144C21.8167 25.3189 21.864 27.4692 21.864 29.466H25.864ZM23.72 24.932H28.112V20.932H23.72V24.932ZM26.112 22.932V32.364H30.112V22.932H26.112ZM49.8688 33.876L48.1323 34.8683L48.1323 34.8683L49.8688 33.876ZM50.4448 34.236L52.443 34.321L52.5123 32.6913L50.9299 32.2957L50.4448 34.236ZM50.3728 35.928L50.6816 37.904L52.3013 37.6509L52.371 36.013L50.3728 35.928ZM49.3648 36.054L49.1987 34.0609L49.1915 34.0615L49.3648 36.054ZM46.1968 35.406L44.5721 36.5724L44.5794 36.5825L44.5867 36.5924L46.1968 35.406ZM45.6928 33.174H47.6928L43.8072 32.5072L45.6928 33.174ZM44.1628 35.37L43.0003 33.7425L42.9934 33.7475L42.9865 33.7525L44.1628 35.37ZM38.9068 35.37L37.6574 36.9317L37.6649 36.9378L37.6725 36.9437L38.9068 35.37ZM38.7808 31.392L40.0853 32.908L38.7808 31.392ZM41.1748 30.474L41.4822 32.4502L46.3446 31.6939L42.3332 28.8436L41.1748 30.474ZM38.4388 28.782L36.869 27.5427L35.3781 29.4312L37.5073 30.5518L38.4388 28.782ZM40.9048 26.712L41.8085 28.4962L41.8177 28.4915L41.8268 28.4868L40.9048 26.712ZM48.3748 27.198L47.0324 28.6806L47.0429 28.6901L47.0535 28.6994L48.3748 27.198ZM43.0288 29.466L43.828 31.2994L43.828 31.2994L43.0288 29.466ZM41.7688 30.384L40.2909 29.0365L36.6857 32.9906L42.0006 32.3705L41.7688 30.384ZM45.4048 30.096L44.3758 28.381L44.3758 28.381L45.4048 30.096ZM45.4048 29.322L44.3758 31.037L44.4191 31.063L44.4636 31.0867L45.4048 29.322ZM44.5768 32.778L45.4226 34.5904L45.439 34.5827L45.4552 34.5748L44.5768 32.778ZM45.6928 31.752L47.4918 32.6258L47.6928 32.212V31.752H45.6928ZM45.6928 31.284H47.6928V28.0479L44.7984 29.4951L45.6928 31.284ZM44.7388 31.626L45.144 33.5845L45.1762 33.5779L45.2081 33.5702L44.7388 31.626ZM43.4788 31.842L43.1892 29.8631L43.1696 29.866L43.15 29.8692L43.4788 31.842ZM42.8308 31.95L42.502 29.9772L42.4736 29.9819L42.4453 29.9875L42.8308 31.95ZM47.7248 33.012C47.7248 33.4616 47.7575 34.2124 48.1323 34.8683L51.6053 32.8837C51.6661 32.9902 51.6977 33.0769 51.713 33.1252C51.7286 33.1747 51.7334 33.204 51.7336 33.2052C51.7339 33.2073 51.7315 33.1927 51.7291 33.1579C51.7267 33.1236 51.7248 33.0756 51.7248 33.012H47.7248ZM48.1323 34.8683C48.6141 35.7115 49.4213 36.0417 49.9597 36.1763L50.9299 32.2957C50.933 32.2965 50.9544 32.302 50.9896 32.316C51.0247 32.3301 51.0791 32.3549 51.1448 32.396C51.2812 32.4812 51.4635 32.6356 51.6053 32.8837L48.1323 34.8683ZM48.4466 34.151L48.3746 35.843L52.371 36.013L52.443 34.321L48.4466 34.151ZM50.064 33.952C49.7124 34.0069 49.4259 34.042 49.1987 34.0609L49.5309 38.0471C49.8797 38.018 50.2652 37.9691 50.6816 37.904L50.064 33.952ZM49.1915 34.0615C48.9989 34.0783 48.6925 34.09 48.2488 34.09V38.09C48.7411 38.09 49.1787 38.0777 49.5381 38.0465L49.1915 34.0615ZM48.2488 34.09C47.8631 34.09 47.6651 34.0453 47.5943 34.0216C47.5367 34.0024 47.6708 34.0349 47.8069 34.2196L44.5867 36.5924C45.5203 37.8595 47.0794 38.09 48.2488 38.09V34.09ZM47.8214 34.2396C47.7846 34.1883 47.6928 34.0311 47.6928 33.624H43.6928C43.6928 34.6569 43.937 35.6877 44.5721 36.5724L47.8214 34.2396ZM47.6928 33.624V33.174H43.6928V33.624H47.6928ZM43.8072 32.5072C43.5598 33.2068 43.2598 33.5572 43.0003 33.7425L45.3253 36.9975C46.4098 36.2228 47.1298 35.1092 47.5784 33.8408L43.8072 32.5072ZM42.9865 33.7525C42.7494 33.925 42.3468 34.09 41.6248 34.09V38.09C42.9668 38.09 44.2562 37.775 45.3391 36.9875L42.9865 33.7525ZM41.6248 34.09C40.6428 34.09 40.2551 33.8857 40.1411 33.7963L37.6725 36.9437C38.7825 37.8143 40.2068 38.09 41.6248 38.09V34.09ZM40.1562 33.8083C40.1191 33.7786 40.0974 33.7515 40.0757 33.6998C40.049 33.6364 40.0068 33.4939 40.0068 33.228H36.0068C36.0068 34.6272 36.473 35.9842 37.6574 36.9317L40.1562 33.8083ZM40.0068 33.228C40.0068 33.059 40.0343 32.982 40.0432 32.9609C40.0492 32.9468 40.0554 32.9337 40.0853 32.908L37.4763 29.876C36.4518 30.7575 36.0068 31.96 36.0068 33.228H40.0068ZM40.0853 32.908C40.1953 32.8133 40.5685 32.5924 41.4822 32.4502L40.8674 28.4978C39.6211 28.6916 38.3983 29.0827 37.4763 29.876L40.0853 32.908ZM42.3332 28.8436C41.3548 28.1485 40.3673 27.5369 39.3703 27.0122L37.5073 30.5518C38.3343 30.9871 39.1708 31.5035 40.0164 32.1044L42.3332 28.8436ZM40.0086 30.0213C40.5707 29.3092 41.1733 28.8179 41.8085 28.4962L40.0011 24.9278C38.7882 25.5421 37.7469 26.4308 36.869 27.5427L40.0086 30.0213ZM41.8268 28.4868C42.3999 28.1891 43.188 27.992 44.2708 27.992V23.992C42.7136 23.992 41.2577 24.2749 39.9828 24.9372L41.8268 28.4868ZM44.2708 27.992C45.8819 27.992 46.6674 28.3501 47.0324 28.6806L49.7171 25.7154C48.3062 24.4379 46.3556 23.992 44.2708 23.992V27.992ZM47.0535 28.6994C47.3761 28.9833 47.7248 29.5606 47.7248 30.87H51.7248C51.7248 28.8674 51.1735 26.9967 49.6961 25.6966L47.0535 28.6994ZM47.7248 30.87V33.012H51.7248V30.87H47.7248ZM44.6488 27.16C43.8154 27.16 42.9947 27.2991 42.2296 27.6326L43.828 31.2994C43.9989 31.2249 44.2582 31.16 44.6488 31.16V27.16ZM42.2296 27.6326C41.4833 27.958 40.8368 28.4378 40.2909 29.0365L43.2467 31.7315C43.4448 31.5142 43.6383 31.382 43.828 31.2994L42.2296 27.6326ZM42.0006 32.3705C42.6163 32.2987 43.4327 32.258 44.4688 32.258V28.258C43.3449 28.258 42.3613 28.3013 41.537 28.3975L42.0006 32.3705ZM44.4688 32.258C44.9535 32.258 45.7506 32.2209 46.4338 31.811L44.3758 28.381C44.4835 28.3164 44.5714 28.283 44.6195 28.2672C44.645 28.2588 44.6644 28.2537 44.6763 28.2508C44.6824 28.2493 44.687 28.2483 44.69 28.2477C44.693 28.2471 44.6946 28.2468 44.6947 28.2468C44.6948 28.2468 44.6899 28.2476 44.6794 28.2489C44.669 28.2501 44.6542 28.2516 44.6346 28.253C44.5947 28.2558 44.5401 28.258 44.4688 28.258V32.258ZM46.4338 31.811C47.0424 31.4458 47.6748 30.7339 47.6748 29.682H43.6748C43.6748 29.3861 43.7608 29.0817 43.9321 28.819C44.0915 28.5745 44.275 28.4415 44.3758 28.381L46.4338 31.811ZM47.6748 29.682C47.6748 28.5069 46.8711 27.8373 46.346 27.5573L44.4636 31.0867C44.3832 31.0438 44.1892 30.9266 44.0073 30.684C43.8042 30.4133 43.6748 30.0617 43.6748 29.682H47.6748ZM46.4338 27.607C45.8177 27.2374 45.1544 27.16 44.6488 27.16V31.16C44.7041 31.16 44.7033 31.165 44.6617 31.1561C44.6198 31.1471 44.5119 31.1186 44.3758 31.037L46.4338 27.607ZM42.7588 35.156C43.6856 35.156 44.5858 34.9809 45.4226 34.5904L43.731 30.9656C43.4878 31.0791 43.176 31.156 42.7588 31.156V35.156ZM45.4552 34.5748C46.28 34.1715 47.0427 33.5505 47.4918 32.6258L43.8938 30.8782C43.9101 30.8446 43.9238 30.8359 43.9072 30.8512C43.887 30.8697 43.8269 30.9184 43.6984 30.9812L45.4552 34.5748ZM47.6928 31.752V31.284H43.6928V31.752H47.6928ZM44.7984 29.4951C44.6598 29.5644 44.4865 29.6295 44.2695 29.6818L45.2081 33.5702C45.6871 33.4545 46.1498 33.2916 46.5872 33.0729L44.7984 29.4951ZM44.3336 29.6675C44.0356 29.7291 43.6564 29.7947 43.1892 29.8631L43.7684 33.8209C44.2852 33.7453 44.746 33.6669 45.144 33.5845L44.3336 29.6675ZM43.15 29.8692L42.502 29.9772L43.1596 33.9228L43.8076 33.8148L43.15 29.8692ZM42.4453 29.9875C42.002 30.0746 41.4447 30.2306 40.9518 30.565C40.3921 30.9449 39.8228 31.6397 39.8228 32.634H43.8228C43.8228 32.9187 43.7435 33.2036 43.5942 33.4489C43.4543 33.6788 43.2918 33.8112 43.1978 33.875C43.0409 33.9814 42.9876 33.9574 43.2163 33.9125L42.4453 29.9875ZM39.8228 32.634C39.8228 33.0292 39.9147 33.4704 40.1646 33.8885C40.4129 34.3039 40.7522 34.5879 41.0827 34.7722C41.6831 35.1071 42.3264 35.156 42.7588 35.156V31.156C42.5671 31.156 42.7425 31.1179 43.0309 31.2788C43.2054 31.3761 43.4277 31.5514 43.598 31.8363C43.7699 32.1239 43.8228 32.4128 43.8228 32.634H39.8228ZM63.3726 26.172L65.2318 26.9093L66.3172 24.172H63.3726V26.172ZM62.9586 27.216L61.0994 26.4787L61.0927 26.4958L61.0862 26.5129L62.9586 27.216ZM59.3766 36L61.2005 36.8207L61.2055 36.8094L59.3766 36ZM56.5686 39.456L55.4152 37.822L55.4046 37.8296L56.5686 39.456ZM51.9606 40.716L50.011 41.1623L50.3596 42.6852L51.9216 42.7156L51.9606 40.716ZM51.3846 38.376L49.4494 38.8808L49.4531 38.895L49.457 38.9092L51.3846 38.376ZM50.8086 36.702L51.2686 34.7556L47.4197 33.8459L48.9683 37.4851L50.8086 36.702ZM54.8946 36.342L56.0604 37.9671L57.2616 37.1054L56.7902 35.7042L54.8946 36.342ZM53.3646 32.202L51.5066 32.9422L53.3646 32.202ZM50.8086 26.172V24.172H47.7473L48.9771 26.9755L50.8086 26.172ZM55.0746 26.172L57.0194 25.7053L56.6514 24.172H55.0746V26.172ZM55.6686 28.26L53.7627 28.8664L55.6686 28.26ZM56.4246 30.546L58.3318 29.9437L58.324 29.9193L58.3157 29.895L56.4246 30.546ZM56.7666 31.59L54.8692 32.2225L54.8791 32.2521L54.8899 32.2814L56.7666 31.59ZM57.1626 32.742L55.251 33.3302L57.0985 39.3344L59.0624 33.3672L57.1626 32.742ZM57.6306 31.32L55.7403 30.6667L55.7355 30.6807L55.7308 30.6948L57.6306 31.32ZM59.2326 26.172V24.172H57.5976L57.2725 25.7743L59.2326 26.172ZM61.5134 25.4347L61.0994 26.4787L64.8177 27.9533L65.2318 26.9093L61.5134 25.4347ZM61.0862 26.5129C59.959 29.5149 58.7794 32.4074 57.5477 35.1906L61.2055 36.8094C62.4698 33.9526 63.6782 30.9891 64.8309 27.9191L61.0862 26.5129ZM57.5527 35.1793C57.0433 36.3115 56.3311 37.1756 55.4152 37.8221L57.722 41.0899C59.2541 40.0084 60.4139 38.5685 61.2004 36.8207L57.5527 35.1793ZM55.4046 37.8296C54.6045 38.4023 53.517 38.7459 51.9995 38.7164L51.9216 42.7156C54.1002 42.7581 56.0847 42.2617 57.7326 41.0824L55.4046 37.8296ZM53.9102 40.2697C53.6796 39.2626 53.4799 38.4491 53.3122 37.8428L49.457 38.9092C49.6013 39.4309 49.7856 40.1774 50.011 41.1623L53.9102 40.2697ZM53.3198 37.8712C53.1493 37.2175 52.9245 36.5666 52.6489 35.9189L48.9683 37.4851C49.1727 37.9654 49.3319 38.4305 49.4494 38.8808L53.3198 37.8712ZM50.3485 38.6484C51.1335 38.8339 51.9072 38.936 52.6626 38.936V34.936C52.266 34.936 51.8037 34.8821 51.2686 34.7556L50.3485 38.6484ZM52.6626 38.936C53.8626 38.936 55.0616 38.6836 56.0604 37.9671L53.7288 34.7169C53.6235 34.7924 53.3346 34.936 52.6626 34.936V38.936ZM56.7902 35.7042C56.3448 34.3805 55.8218 32.966 55.2226 31.4618L51.5066 32.9422C52.0834 34.39 52.5804 35.7355 52.999 36.9798L56.7902 35.7042ZM55.2226 31.4618C54.6221 29.9546 53.7596 27.9205 52.6401 25.3685L48.9771 26.9755C50.0896 29.5115 50.931 31.4974 51.5066 32.9422L55.2226 31.4618ZM50.8086 28.172H55.0746V24.172H50.8086V28.172ZM53.1298 26.6387C53.2882 27.2986 53.5007 28.043 53.7627 28.8664L57.5744 27.6536C57.3324 26.893 57.149 26.2454 57.0194 25.7053L53.1298 26.6387ZM53.7627 28.8664C54.0191 29.6723 54.2761 30.4492 54.5335 31.197L58.3157 29.895C58.0691 29.1788 57.822 28.4317 57.5744 27.6536L53.7627 28.8664ZM54.5174 31.1483C54.5944 31.3921 54.7126 31.7526 54.8692 32.2225L58.664 30.9575C58.5086 30.4914 58.3987 30.1559 58.3318 29.9437L54.5174 31.1483ZM54.8899 32.2814C55.0508 32.718 55.1695 33.0652 55.251 33.3302L59.0742 32.1538C58.9637 31.7948 58.8184 31.374 58.6433 30.8986L54.8899 32.2814ZM59.0624 33.3672L59.5303 31.9452L55.7308 30.6948L55.2628 32.1168L59.0624 33.3672ZM59.5209 31.9733C60.4109 29.3983 60.9933 27.5521 61.1927 26.5697L57.2725 25.7743C57.1359 26.4479 56.6503 28.0337 55.7403 30.6667L59.5209 31.9733ZM59.2326 28.172H63.3726V24.172H59.2326V28.172Z" fill="#4A5759" mask="url(#path-4-outside-2_8_9)"/>
</svg>
