<svg width="80" height="80" viewBox="0 0 80 80" fill="none" xmlns="http://www.w3.org/2000/svg">
<rect width="80" height="80" rx="40" fill="#F1EEDB"/>
<mask id="mask0_44_212" style="mask-type:alpha" maskUnits="userSpaceOnUse" x="20" y="20" width="40" height="40">
<rect x="20" y="20" width="40" height="40" fill="#D9D9D9"/>
</mask>
<g mask="url(#mask0_44_212)">
<path d="M35.25 42.7083L44.4167 33.5417L42.1667 31.2917L35.25 38.2083L31.8333 34.7917L29.5833 37.0833L35.25 42.7083ZM37 50C33.3889 50 30.3194 48.7361 27.7917 46.2083C25.2639 43.6806 24 40.6111 24 37C24 33.3889 25.2639 30.3194 27.7917 27.7917C30.3194 25.2639 33.3889 24 37 24C40.6111 24 43.6806 25.2639 46.2083 27.7917C48.7361 30.3194 50 33.3889 50 37C50 38.5278 49.7569 39.9792 49.2708 41.3542C48.7847 42.7292 48.0972 43.9722 47.2083 45.0833L56 53.875L53.875 56L45.0833 47.2083C43.9722 48.0972 42.7292 48.7847 41.3542 49.2708C39.9792 49.7569 38.5278 50 37 50Z" fill="#FFA725"/>
</g>
</svg>
