<svg width="80" height="80" viewBox="0 0 80 80" fill="none" xmlns="http://www.w3.org/2000/svg">
<rect width="80" height="80" rx="40" fill="#F1EEDB"/>
<mask id="mask0_44_207" style="mask-type:alpha" maskUnits="userSpaceOnUse" x="20" y="20" width="40" height="40">
<rect x="20" y="20" width="40" height="40" fill="#D9D9D9"/>
</mask>
<g mask="url(#mask0_44_207)">
<path d="M29.7083 54C29.4028 54 29.0972 53.9653 28.7917 53.8958C28.4861 53.8264 28.1806 53.75 27.875 53.6667C27.6528 53.6111 27.4306 53.5278 27.2083 53.4167C26.9861 53.3056 26.7917 53.3333 26.625 53.5C26.3194 53.8056 25.9653 53.9653 25.5625 53.9792C25.1597 53.9931 24.8056 53.8472 24.5 53.5417C24.1944 53.2361 24.0347 52.8819 24.0208 52.4792C24.0069 52.0764 24.1528 51.7222 24.4583 51.4167C24.9861 50.8611 25.625 50.5694 26.375 50.5417C27.125 50.5139 27.875 50.5972 28.625 50.7917C28.8472 50.8472 29.0694 50.9306 29.2917 51.0417C29.5139 51.1528 29.7083 51.125 29.875 50.9583C30.0694 50.7639 30.1042 50.5417 29.9792 50.2917C29.8542 50.0417 29.7639 49.7917 29.7083 49.5417C29.5139 48.7917 29.4375 48.0417 29.4792 47.2917C29.5208 46.5417 29.8056 45.8889 30.3333 45.3333C30.8611 44.7778 31.5 44.4792 32.25 44.4375C33 44.3958 33.75 44.4722 34.5 44.6667C34.7222 44.7222 34.9444 44.8125 35.1667 44.9375C35.3889 45.0625 35.5833 45.0417 35.75 44.875C35.9444 44.6806 35.9792 44.4583 35.8542 44.2083C35.7292 43.9583 35.6389 43.7083 35.5833 43.4583C35.3889 42.7083 35.3056 41.9514 35.3333 41.1875C35.3611 40.4236 35.6389 39.7639 36.1667 39.2083C36.6944 38.6528 37.3403 38.3542 38.1042 38.3125C38.8681 38.2708 39.625 38.3472 40.375 38.5417C40.5972 38.5972 40.8194 38.6875 41.0417 38.8125C41.2639 38.9375 41.4583 38.9167 41.625 38.75C41.8194 38.5556 41.8542 38.3333 41.7292 38.0833C41.6042 37.8333 41.5139 37.5833 41.4583 37.3333C41.2639 36.5833 41.1806 35.8264 41.2083 35.0625C41.2361 34.2986 41.5139 33.6389 42.0417 33.0833C42.5694 32.5278 43.2153 32.2361 43.9792 32.2083C44.7431 32.1806 45.5 32.2639 46.25 32.4583C46.4722 32.5139 46.6944 32.5972 46.9167 32.7083C47.1389 32.8194 47.3333 32.7917 47.5 32.625C47.6944 32.4306 47.7361 32.2083 47.625 31.9583C47.5139 31.7083 47.4306 31.4583 47.375 31.2083C47.1806 30.4583 47.1042 29.7083 47.1458 28.9583C47.1875 28.2083 47.4722 27.5556 48 27C48.5278 26.4444 49.1667 26.1458 49.9167 26.1042C50.6667 26.0625 51.4167 26.1389 52.1667 26.3333C52.3889 26.3889 52.6181 26.4722 52.8542 26.5833C53.0903 26.6944 53.2917 26.6667 53.4583 26.5C53.7639 26.1944 54.1111 26.0417 54.5 26.0417C54.8889 26.0417 55.2361 26.1944 55.5417 26.5C55.8472 26.8056 56.0069 27.1528 56.0208 27.5417C56.0347 27.9306 55.8889 28.2778 55.5833 28.5833C55.0556 29.1389 54.4097 29.4375 53.6458 29.4792C52.8819 29.5208 52.1389 29.4444 51.4167 29.25C51.1944 29.1944 50.9653 29.1042 50.7292 28.9792C50.4931 28.8542 50.2917 28.875 50.125 29.0417C49.9306 29.2361 49.8958 29.4583 50.0208 29.7083C50.1458 29.9583 50.2361 30.2222 50.2917 30.5C50.4861 31.25 50.5625 32 50.5208 32.75C50.4792 33.5 50.1944 34.1528 49.6667 34.7083C49.1389 35.2639 48.4931 35.5625 47.7292 35.6042C46.9653 35.6458 46.2222 35.5694 45.5 35.375C45.2778 35.3194 45.0486 35.2292 44.8125 35.1042C44.5764 34.9792 44.375 35 44.2083 35.1667C44.0139 35.3611 43.9792 35.5833 44.1042 35.8333C44.2292 36.0833 44.3194 36.3333 44.375 36.5833C44.5694 37.3333 44.6528 38.0903 44.625 38.8542C44.5972 39.6181 44.3194 40.2778 43.7917 40.8333C43.2639 41.3889 42.6181 41.6875 41.8542 41.7292C41.0903 41.7708 40.3333 41.6944 39.5833 41.5C39.3611 41.4444 39.1389 41.3542 38.9167 41.2292C38.6944 41.1042 38.5 41.125 38.3333 41.2917C38.1389 41.4861 38.1042 41.7083 38.2292 41.9583C38.3542 42.2083 38.4444 42.4583 38.5 42.7083C38.6944 43.4583 38.7708 44.2153 38.7292 44.9792C38.6875 45.7431 38.4028 46.4028 37.875 46.9583C37.3472 47.5139 36.7083 47.8056 35.9583 47.8333C35.2083 47.8611 34.4583 47.7778 33.7083 47.5833C33.4861 47.5278 33.2639 47.4444 33.0417 47.3333C32.8194 47.2222 32.625 47.25 32.4583 47.4167C32.2639 47.6111 32.2292 47.8333 32.3542 48.0833C32.4792 48.3333 32.5694 48.5833 32.625 48.8333C32.8194 49.5833 32.8958 50.3333 32.8542 51.0833C32.8125 51.8333 32.5278 52.4861 32 53.0417C31.6944 53.3472 31.3472 53.5833 30.9583 53.75C30.5694 53.9167 30.1528 54 29.7083 54ZM30 38C27.7778 38 25.8889 37.2222 24.3333 35.6667C22.7778 34.1111 22 32.2222 22 30C22 27.7778 22.7778 25.8889 24.3333 24.3333C25.8889 22.7778 27.7778 22 30 22C32.2222 22 34.1111 22.7778 35.6667 24.3333C37.2222 25.8889 38 27.7778 38 30C38 32.2222 37.2222 34.1111 35.6667 35.6667C34.1111 37.2222 32.2222 38 30 38ZM47 58C46.1667 58 45.4583 57.7083 44.875 57.125C44.2917 56.5417 44 55.8333 44 55V47C44 46.1667 44.2917 45.4583 44.875 44.875C45.4583 44.2917 46.1667 44 47 44H55C55.8333 44 56.5417 44.2917 57.125 44.875C57.7083 45.4583 58 46.1667 58 47V55C58 55.8333 57.7083 56.5417 57.125 57.125C56.5417 57.7083 55.8333 58 55 58H47Z" fill="#FFA725"/>
</g>
</svg>
