<svg width="80" height="80" viewBox="0 0 80 80" fill="none" xmlns="http://www.w3.org/2000/svg">
<rect width="80" height="80" rx="40" fill="#F1EEDB"/>
<mask id="mask0_44_1078" style="mask-type:alpha" maskUnits="userSpaceOnUse" x="20" y="20" width="40" height="40">
<rect x="20" y="20" width="40" height="40" fill="#D9D9D9"/>
</mask>
<g mask="url(#mask0_44_1078)">
<path d="M40 56C37.8133 56 35.7467 55.58 33.8 54.74C31.8533 53.9 30.1533 52.7533 28.7 51.3C27.2467 49.8467 26.1 48.1467 25.26 46.2C24.42 44.2533 24 42.1867 24 40C24 37.7778 24.4236 35.7014 25.2708 33.7708C26.1181 31.8403 27.2847 30.1458 28.7708 28.6875C30.2569 27.2292 31.9931 26.0833 33.9792 25.25C35.9653 24.4167 38.0868 24 40.3438 24C42.4935 24 44.5222 24.375 46.43 25.125C48.3378 25.875 50 26.9028 51.4167 28.2083C52.8333 29.5139 53.9514 31.0417 54.7708 32.7917C55.5903 34.5417 56 36.4167 56 38.4167C56 41.0833 55.0683 43.3472 53.205 45.2083C51.3414 47.0694 49.0786 48 46.4167 48H43.5933C43.3644 48 43.1667 48.0694 43 48.2083C42.8333 48.3472 42.75 48.5232 42.75 48.7363C42.75 49.1621 42.9583 49.5139 43.375 49.7917C43.7917 50.0694 44 50.8056 44 52C44 53.0278 43.625 53.9514 42.875 54.7708C42.125 55.5903 41.1667 56 40 56ZM31 41.5C31.6944 41.5 32.2847 41.2569 32.7708 40.7708C33.2569 40.2847 33.5 39.6944 33.5 39C33.5 38.3056 33.2569 37.7153 32.7708 37.2292C32.2847 36.7431 31.6944 36.5 31 36.5C30.3056 36.5 29.7153 36.7431 29.2292 37.2292C28.7431 37.7153 28.5 38.3056 28.5 39C28.5 39.6944 28.7431 40.2847 29.2292 40.7708C29.7153 41.2569 30.3056 41.5 31 41.5ZM36 35.5C36.6944 35.5 37.2847 35.2569 37.7708 34.7708C38.2569 34.2847 38.5 33.6944 38.5 33C38.5 32.3056 38.2569 31.7153 37.7708 31.2292C37.2847 30.7431 36.6944 30.5 36 30.5C35.3056 30.5 34.7153 30.7431 34.2292 31.2292C33.7431 31.7153 33.5 32.3056 33.5 33C33.5 33.6944 33.7431 34.2847 34.2292 34.7708C34.7153 35.2569 35.3056 35.5 36 35.5ZM44 35.5C44.6944 35.5 45.2847 35.2569 45.7708 34.7708C46.2569 34.2847 46.5 33.6944 46.5 33C46.5 32.3056 46.2569 31.7153 45.7708 31.2292C45.2847 30.7431 44.6944 30.5 44 30.5C43.3056 30.5 42.7153 30.7431 42.2292 31.2292C41.7431 31.7153 41.5 32.3056 41.5 33C41.5 33.6944 41.7431 34.2847 42.2292 34.7708C42.7153 35.2569 43.3056 35.5 44 35.5ZM49 41.5C49.6944 41.5 50.2847 41.2569 50.7708 40.7708C51.2569 40.2847 51.5 39.6944 51.5 39C51.5 38.3056 51.2569 37.7153 50.7708 37.2292C50.2847 36.7431 49.6944 36.5 49 36.5C48.3056 36.5 47.7153 36.7431 47.2292 37.2292C46.7431 37.7153 46.5 38.3056 46.5 39C46.5 39.6944 46.7431 40.2847 47.2292 40.7708C47.7153 41.2569 48.3056 41.5 49 41.5Z" fill="#FFA725"/>
</g>
</svg>
