<svg width="80" height="80" viewBox="0 0 80 80" fill="none" xmlns="http://www.w3.org/2000/svg">
<rect width="80" height="80" rx="40" fill="#F1EEDB"/>
<mask id="mask0_44_1069" style="mask-type:alpha" maskUnits="userSpaceOnUse" x="20" y="20" width="40" height="40">
<rect x="20" y="20" width="40" height="40" fill="#D9D9D9"/>
</mask>
<g mask="url(#mask0_44_1069)">
<path d="M40 50C37.2222 50 34.8611 49.0278 32.9167 47.0833C30.9722 45.1389 30 42.7778 30 40L33.0417 41C33.2917 42.7222 34.0764 44.1528 35.3958 45.2917C36.7153 46.4306 38.25 47 40 47C41.9444 47 43.5972 46.3194 44.9583 44.9583C46.3194 43.5972 47 41.9444 47 40C47 38.25 46.4306 36.7153 45.2917 35.3958C44.1528 34.0764 42.7222 33.2917 41 33.0417L40 30C42.7778 30 45.1389 30.9722 47.0833 32.9167C49.0278 34.8611 50 37.2222 50 40C50 42.7778 49.0278 45.1389 47.0833 47.0833C45.1389 49.0278 42.7778 50 40 50ZM40 56C37.8056 56 35.7361 55.5833 33.7917 54.75C31.8472 53.9167 30.1458 52.7708 28.6875 51.3125C27.2292 49.8542 26.0833 48.1528 25.25 46.2083C24.4167 44.2639 24 42.1944 24 40C24 39.6944 24.0069 39.3889 24.0208 39.0833C24.0347 38.7778 24.0556 38.4722 24.0833 38.1667L27 39.0833V40C27 43.6111 28.2639 46.6806 30.7917 49.2083C33.3194 51.7361 36.3889 53 40 53C43.6111 53 46.6806 51.7361 49.2083 49.2083C51.7361 46.6806 53 43.6111 53 40C53 36.3889 51.7361 33.3194 49.2083 30.7917C46.6806 28.2639 43.6111 27 40 27C39.8611 27 39.7083 27.0069 39.5417 27.0208C39.375 27.0347 39.2222 27.0417 39.0833 27.0417L38.1667 24.125C38.4722 24.0694 38.7778 24.0347 39.0833 24.0208C39.3889 24.0069 39.6944 24 40 24C42.2222 24 44.2986 24.4167 46.2292 25.25C48.1597 26.0833 49.8542 27.2292 51.3125 28.6875C52.7708 30.1458 53.9167 31.8403 54.75 33.7708C55.5833 35.7014 56 37.7778 56 40C56 42.1944 55.5833 44.2639 54.75 46.2083C53.9167 48.1528 52.7708 49.8542 51.3125 51.3125C49.8542 52.7708 48.1597 53.9167 46.2292 54.75C44.2986 55.5833 42.2222 56 40 56ZM38.1667 41L31.25 34.0417L29 40L24 24L40 29L34.0417 31.2083L41 38.1667L38.1667 41Z" fill="#FFA725"/>
</g>
</svg>
