<svg width="80" height="80" viewBox="0 0 80 80" fill="none" xmlns="http://www.w3.org/2000/svg">
<rect width="80" height="80" rx="40" fill="#F1EEDB"/>
<mask id="mask0_44_217" style="mask-type:alpha" maskUnits="userSpaceOnUse" x="20" y="20" width="40" height="40">
<rect x="20" y="20" width="40" height="40" fill="#D9D9D9"/>
</mask>
<g mask="url(#mask0_44_217)">
<path d="M36 40C34.3333 40 32.9167 39.4167 31.75 38.25C30.5833 37.0833 30 35.6667 30 34C30 32.3333 30.5833 30.9167 31.75 29.75C32.9167 28.5833 34.3333 28 36 28C37.6667 28 39.0833 28.5833 40.25 29.75C41.4167 30.9167 42 32.3333 42 34C42 35.6667 41.4167 37.0833 40.25 38.25C39.0833 39.4167 37.6667 40 36 40ZM48 51.1667C48.8333 51.1667 49.5417 50.875 50.125 50.2917C50.7083 49.7083 51 49 51 48.1667C51 47.3333 50.7083 46.625 50.125 46.0417C49.5417 45.4583 48.8333 45.1667 48 45.1667C47.1667 45.1667 46.4583 45.4583 45.875 46.0417C45.2917 46.625 45 47.3333 45 48.1667C45 49 45.2917 49.7083 45.875 50.2917C46.4583 50.875 47.1667 51.1667 48 51.1667ZM55.875 58.125L51.0833 53.3333C50.6111 53.6111 50.1181 53.8194 49.6042 53.9583C49.0903 54.0972 48.5556 54.1667 48 54.1667C46.3333 54.1667 44.9167 53.5833 43.75 52.4167C42.5833 51.25 42 49.8333 42 48.1667C42 46.5 42.5833 45.0833 43.75 43.9167C44.9167 42.75 46.3333 42.1667 48 42.1667C49.6667 42.1667 51.0833 42.75 52.25 43.9167C53.4167 45.0833 54 46.5 54 48.1667C54 48.7222 53.9306 49.2569 53.7917 49.7708C53.6528 50.2847 53.4583 50.7639 53.2083 51.2083L58 56L55.875 58.125ZM24 52V48.1667C24 47.4444 24.1736 46.7847 24.5208 46.1875C24.8681 45.5903 25.3472 45.1111 25.9583 44.75C27.4583 43.8611 29.0486 43.1806 30.7292 42.7083C32.4097 42.2361 34.1667 42 36 42C36.8611 42 37.6945 42.0486 38.5 42.1458C39.3056 42.2431 40.1111 42.4028 40.9167 42.625C40.2778 43.4306 39.7986 44.3056 39.4792 45.25C39.1597 46.1944 39 47.1667 39 48.1667C39 48.8333 39.0695 49.4861 39.2083 50.125C39.3472 50.7639 39.5695 51.3889 39.875 52H24ZM50 34C50 35.6667 49.4167 37.0833 48.25 38.25C47.0833 39.4167 45.6667 40 44 40C43.7778 40 43.5695 39.9931 43.375 39.9792C43.1806 39.9653 42.9722 39.9306 42.75 39.875C43.4445 39.0694 43.9931 38.1736 44.3958 37.1875C44.7986 36.2014 45 35.1389 45 34C45 32.8611 44.7986 31.7986 44.3958 30.8125C43.9931 29.8264 43.4445 28.9306 42.75 28.125C42.9722 28.0694 43.1806 28.0347 43.375 28.0208C43.5695 28.0069 43.7778 28 44 28C45.6667 28 47.0833 28.5833 48.25 29.75C49.4167 30.9167 50 32.3333 50 34Z" fill="#FFA725"/>
</g>
</svg>
