<svg width="80" height="80" viewBox="0 0 80 80" fill="none" xmlns="http://www.w3.org/2000/svg">
<rect width="80" height="80" rx="40" fill="#F1EEDB"/>
<mask id="mask0_44_201" style="mask-type:alpha" maskUnits="userSpaceOnUse" x="20" y="20" width="40" height="40">
<rect x="20" y="20" width="40" height="40" fill="#D9D9D9"/>
</mask>
<g mask="url(#mask0_44_201)">
<path d="M28 56V48C30.2778 46.4167 31.9722 44.7014 33.0833 42.8542C34.1944 41.0069 34.9583 39.3889 35.375 38H31V34.9933H34.25C33.8611 34.4422 33.5556 33.8283 33.3333 33.1517C33.1111 32.475 33 31.7578 33 31C33 29.0556 33.6806 27.4028 35.0417 26.0417C36.4028 24.6806 38.0556 24 40 24C41.9444 24 43.5972 24.6806 44.9583 26.0417C46.3194 27.4028 47 29.0556 47 31C47 31.7578 46.8889 32.475 46.6667 33.1517C46.4444 33.8283 46.1389 34.4422 45.75 34.9933H49V38H44.625C45.0417 39.3889 45.8056 41.0069 46.9167 42.8542C48.0278 44.7014 49.7222 46.4231 52 48.0192V56H28Z" fill="#FFA725"/>
</g>
</svg>
