<svg width="80" height="80" viewBox="0 0 80 80" fill="none" xmlns="http://www.w3.org/2000/svg">
<rect width="80" height="80" rx="40" fill="#F1EEDB"/>
<mask id="mask0_44_1060" style="mask-type:alpha" maskUnits="userSpaceOnUse" x="20" y="20" width="40" height="40">
<rect x="20" y="20" width="40" height="40" fill="#D9D9D9"/>
</mask>
<g mask="url(#mask0_44_1060)">
<path d="M34.9583 38.7083L38.7083 34.9583L36.4583 32.6667L34.5417 34.5417L32.4583 32.4583L34.3333 30.5417L32 28.25L28.25 32L34.9583 38.7083ZM48 51.75L51.75 48L49.5 45.7083L47.5833 47.5833L45.5 45.5L47.375 43.5833L45.0417 41.2917L41.2917 45.0417L48 51.75ZM46.75 31.125L48.875 33.25L51 31.125L48.875 29L46.75 31.125ZM32.375 54H26V47.625L32.8333 40.8333L24 32L32 24L40.8333 32.8333L46.75 26.875C47.0556 26.5694 47.3889 26.3472 47.75 26.2083C48.1111 26.0694 48.4861 26 48.875 26C49.2639 26 49.6389 26.0694 50 26.2083C50.3611 26.3472 50.6944 26.5694 51 26.875L53.125 29C53.4306 29.3056 53.6528 29.6389 53.7917 30C53.9306 30.3611 54 30.7361 54 31.125C54 31.5139 53.9306 31.8889 53.7917 32.25C53.6528 32.6111 53.4306 32.9444 53.125 33.25L47.1667 39.1667L56 48L48 56L39.1667 47.1667L32.375 54Z" fill="#FFA725"/>
</g>
</svg>
